<svg width="138" height="102" viewBox="0 0 138 102" fill="none" xmlns="http://www.w3.org/2000/svg">
<path d="M118.873 97.1914H116.578V101.818H118.873V97.1914Z" fill="#5C944A"/>
<path d="M125.722 92.565H123.427V97.1914H125.722V92.565Z" fill="#5C944A"/>
<path d="M61.82 60.18H59.525V64.8064H61.82V60.18Z" fill="#A3C254"/>
<path d="M7.06174 50.9271H4.76672V55.5536H7.06174V50.9271Z" fill="#5C944A"/>
<path d="M134.83 46.3007H132.535V50.9272H134.83V46.3007Z" fill="#5C944A"/>
<path d="M123.427 41.6743H121.132V46.3007H123.427V41.6743Z" fill="#4E885B"/>
<path d="M20.7608 41.6743H18.4658V46.3007H20.7608V41.6743Z" fill="#A3C254"/>
<path d="M13.9115 37.0479H11.6165V41.6743H13.9115V37.0479Z" fill="#5C944A"/>
<path d="M7.06198 74.0593H13.9112V78.6857H9.35721V92.565H11.616V97.1914H16.1701V101.854H32.1638V102H107.469V101.854H116.578V97.1914H98.3249V92.565H93.7709V87.9386H91.4756V83.3121H89.2169V92.565H84.6264V97.1914H66.3738V92.565H61.8197V87.9386H59.5245V83.3121H36.7179V78.6857H32.1638V74.0593H27.6098V60.18H20.7605V55.5536H13.9112V50.9271H11.616V46.3007H9.35721V50.9271H7.06198V55.5536H4.76672V69.4329H7.06198V74.0593Z" fill="#5C944A"/>
<path d="M70.9646 83.3121H68.6696V87.9386H70.9646H73.2231H75.5181V83.3121H73.2231H70.9646Z" fill="#5C944A"/>
<path d="M32.1639 60.18V55.5536H29.8689H27.6103V60.18H29.8689H32.1639Z" fill="#5C944A"/>
<path d="M89.2174 55.5536H91.4762H93.7714H96.0302H98.3255H100.621H102.88H105.175H107.47H109.729V50.9271H107.47H105.175H102.88H100.621H98.3255H96.0302H93.7714H91.4762H89.2174H86.9221V55.5536H89.2174Z" fill="#5C944A"/>
<path d="M48.1217 41.6743H50.417H52.6757H54.971H57.2662H59.525H61.8203H64.1155H66.3743H68.6695H70.9648V37.0479H68.6695H66.3743H64.1155H61.8203H59.525H57.2662H54.971H52.6757H50.417H48.1217H45.8629V41.6743H48.1217Z" fill="#5C944A"/>
<path d="M112.024 74.0593H109.729H107.47V78.6857V83.3121H109.729H112.024H114.282V78.6857V74.0593H112.024Z" fill="#A3C254"/>
<path d="M39.0134 74.0593H36.7184V78.6857V83.3121H39.0134H41.272H43.567V78.6857V74.0593H41.272H39.0134Z" fill="#A3C254"/>
<path d="M61.82 55.5536H59.525V60.18H61.82V64.8064H64.115H66.3736V60.18V55.5536H64.115H61.82Z" fill="#A3C254"/>
<path d="M86.9219 27.7586H84.627V32.385H86.9219H89.217H91.4755V27.7586H89.217H86.9219Z" fill="#A3C254"/>
<path d="M18.4655 27.7586H16.1705V32.385H18.4655V27.7586Z" fill="#5C944A"/>
<path d="M96.0664 18.5057H93.7714V23.1321H96.0664V18.5057Z" fill="#A3C254"/>
<path d="M27.6101 18.5057H25.3151V23.1321H27.6101V18.5057Z" fill="#4F875C"/>
<path d="M36.7182 13.8793H34.4232V18.5057H36.7182V13.8793Z" fill="#5C944A"/>
<path d="M130.277 50.9272V46.3007H127.981H125.686H123.391H121.132V41.6743V37.0479V32.385V27.7586H118.837V23.1321H116.542H114.246V18.5057H112.024H109.729H107.434H105.138H102.843H100.548H98.2526H95.9573V23.1321H93.6621V18.5057H95.9573V13.8793H93.6621V9.25286H91.3669H89.0716V4.62643H86.7764H84.4812H82.1859H79.8907H77.7776H75.4824H73.1871H70.8919H68.6695V9.25286H66.3743V4.62643H64.0791H61.7838H59.4886H57.1933H54.8981H52.6029V9.25286H50.3076H48.0124H45.7172V13.8793H43.4219V18.5057V23.1321H41.1267H38.8314V18.5057H36.5362H34.4231H32.1279H29.8327H27.5374V23.1321H25.3151H23.0198H20.7246V27.7586H18.4293V32.385H16.1341V37.0114V41.6379H18.4293H20.7246V46.2643H18.4293H16.1341H13.8389H11.5436V50.8907H13.8389V55.5171H16.1341H18.4293H20.7246V60.1436H23.0198H25.3151H27.6103V55.5171H29.9055H32.2008V60.1436H29.9055H27.6103V64.77V69.3964V74.0229H29.9055H32.2008V78.6857H34.496H36.7912V74.0593H39.0865H41.3817H43.677V78.6857V83.3121H45.9722H48.2674H50.5627H52.8579H55.1531H57.4484H59.7436V87.9386H62.0388V92.565H64.3341H66.6293V97.1914H68.9246H71.2198H73.515H75.8102H78.1055H80.4007H82.696H84.9912V92.565H87.2864H89.5817V87.9386V83.3121H91.8769V87.9386H94.1721V92.565H96.4674H98.7626V97.1914H101.058H103.353H105.648H107.944H110.239H112.534H114.829H117.125H119.42H121.715H124.01V92.565H126.305H128.601V87.9386V83.3121V78.6857H126.305V74.0593H128.601V69.4329H130.896H133.191V64.8064V60.18V55.5536V50.9272H130.277ZM86.9221 50.9272H89.2174H91.5126H93.8078H96.1031H98.3983H100.694H102.989H105.284H107.579H109.874V55.5536H107.579H105.284H102.989H100.694H98.3983H96.1031H93.8078H91.5126H89.2174H86.9221V50.9272ZM59.525 60.18V55.5536H61.8203H64.1155H66.4107V60.18V64.8064H64.1155H61.8203H59.525V60.18ZM50.4169 37.0479H52.7122H55.0074H57.3026H59.5979H61.8931H64.1884H66.4836H68.7788H71.074V41.6743H68.6695H66.3743H64.0791H61.7838H59.4886H57.1933H54.8981H52.6029H50.3076H48.0124H45.7172V37.0479H48.0124H50.4169ZM107.47 78.6857V74.0593H109.765H112.06H114.356V78.6857V83.3121H112.024H109.729H107.434V78.6857H107.47ZM91.4762 32.385H89.1809H86.8857H84.5905V27.7586H86.8857H89.1809H91.4762V32.385ZM68.6695 83.3121H70.9648H73.26H75.5552V87.9386H73.26H70.9648H68.6695V83.3121Z" fill="#A3C254"/>
<path d="M137.125 64.8064V60.18V55.5536V50.9271H134.83H132.535V55.5536V60.18V64.8064H134.83V60.18V55.5536V60.18V64.8064H132.535V69.4328H134.83H137.125V64.8064Z" fill="#5C944A"/>
<path d="M86.9221 0H84.6269H82.3681H80.0729H77.7776H75.5188H73.2236H70.9648H68.6696V4.62643H70.9648H73.2236H75.5188H77.7776H80.0729H82.3681H84.6269H86.9221H89.2174V0H86.9221Z" fill="#5C944A"/>
<path d="M16.1706 101.854V102H29.8691V101.854H18.4658H16.1706V97.1914H11.6165V101.854H16.1706Z" fill="#5C944A"/>
<path d="M112.024 101.854H107.47V102H112.024V101.854Z" fill="#5C944A"/>
<path d="M118.873 97.1914V101.854H121.132H123.427V97.1914H121.132H118.873Z" fill="#5C944A"/>
<path d="M9.35674 92.565V87.9385V83.3121V78.6857H11.6153H13.9103V74.0593H11.6153H9.35674H7.06174V78.6857H4.76672V83.3121V87.9385V92.565H7.06174V97.1914H9.35674H11.6153V92.565H9.35674Z" fill="#5C944A"/>
<path d="M127.981 69.4329V74.0593H125.723V78.6857H127.981V83.3121V87.9386V92.565H125.723V97.1914H127.981H130.276V92.565H132.535V87.9386V83.3121V78.6857H130.276V74.0593H132.535V69.4329H130.276H127.981Z" fill="#5C944A"/>
<path d="M4.76677 69.4328V64.8064V60.18V55.5536V50.9271H2.50821V55.5536H0.213196V60.18V64.8064V69.4328H2.50821V74.0593H4.76677H7.06179V69.4328H4.76677Z" fill="#5C944A"/>
<path d="M132.572 46.3007H130.277V50.9272H132.572V46.3007Z" fill="#5C944A"/>
<path d="M9.35721 50.9271V46.3007H11.616H13.9112H16.1701H18.4653V41.6743H16.1701V37.0479V32.385V27.7586H13.9112V32.385H11.616V37.0479H13.9112V41.6743H11.616H9.35721V46.3007H7.06198H4.76672V50.9271H7.06198H9.35721Z" fill="#5C944A"/>
<path d="M127.981 41.6743H125.722H123.427V46.3007H125.722H127.981H130.276V41.6743H127.981Z" fill="#5C944A"/>
<path d="M125.723 37.0478V32.385H123.427V27.7586V23.1321H121.132V18.5057H118.873H116.578H114.283V23.1321H116.578H118.873V27.7586H121.132V32.385V37.0478V41.6743H123.427V37.0478H125.723Z" fill="#5C944A"/>
<path d="M20.7605 27.7586V23.1321H18.4655H16.1705V27.7586H18.4655H20.7605Z" fill="#5C944A"/>
<path d="M25.3146 23.1321V18.5057H23.0196H20.761V23.1321H23.0196H25.3146Z" fill="#5C944A"/>
<path d="M112.024 13.8793H109.729H107.47H105.175H102.879H100.621H98.3254V9.25286H96.0302V4.62643H93.7714H91.4761H89.2173V9.25286H91.4761H93.7714V13.8793H96.0302V18.5057H98.3254H100.621H102.879H105.175H107.47H109.729H112.024H114.283V13.8793H112.024Z" fill="#5C944A"/>
<path d="M29.8689 13.8793H27.6103V18.5057H29.8689H32.1639H34.4224V13.8793H32.1639H29.8689Z" fill="#5C944A"/>
<path d="M68.6693 4.62643H66.3743V9.25286H68.6693V4.62643Z" fill="#5C944A"/>
<path d="M48.1217 4.62643H45.8629H43.5677V9.25286H41.2724V13.8793H39.0136V18.5057V23.1321H41.2724H43.5677V18.5057V13.8793H45.8629V9.25286H48.1217H50.417H52.6758V4.62643H50.417H48.1217Z" fill="#5C944A"/>
<path d="M59.5245 4.62643H61.8195H64.1145V0H61.8195H59.5245H57.2659H54.9709V4.62643H57.2659H59.5245Z" fill="#5C944A"/>
</svg>
