<svg width="102" height="65" viewBox="0 0 102 65" fill="none" xmlns="http://www.w3.org/2000/svg">
<g id="Group">
<path id="Vector" d="M101.926 45.2106H95.4668V51.6693H101.926V45.2106Z" fill="#9CE9FE"/>
<path id="Vector_2" d="M101.926 38.7525H95.4668V45.2112H101.926V38.7525Z" fill="#CAF1FC"/>
<path id="Vector_3" d="M101.926 32.2931H95.4668V38.7518H101.926V32.2931Z" fill="white"/>
<path id="Vector_4" d="M95.4685 51.67H89.0098V58.1287H95.4685V51.67Z" fill="#5FDBFD"/>
<path id="Vector_5" d="M95.4685 45.2106H89.0098V51.6693H95.4685V45.2106Z" fill="#9CE9FE"/>
<path id="Vector_6" d="M95.4685 38.7525H89.0098V45.2112H95.4685V38.7525Z" fill="#CAF1FC"/>
<path id="Vector_7" d="M95.4685 32.2931H89.0098V38.7518H95.4685V32.2931Z" fill="#CAF1FC"/>
<path id="Vector_8" d="M95.4685 25.835H89.0098V32.2937H95.4685V25.835Z" fill="white"/>
<path id="Vector_9" d="M95.4685 19.3756H89.0098V25.8344H95.4685V19.3756Z" fill="white"/>
<path id="Vector_10" d="M89.0117 51.67H82.553V58.1287H89.0117V51.67Z" fill="#5FDBFD"/>
<path id="Vector_11" d="M89.0117 45.2106H82.553V51.6693H89.0117V45.2106Z" fill="#9CE9FE"/>
<path id="Vector_12" d="M89.0117 38.7525H82.553V45.2112H89.0117V38.7525Z" fill="#9CE9FE"/>
<path id="Vector_13" d="M89.0117 32.2931H82.553V38.7518H89.0117V32.2931Z" fill="#CAF1FC"/>
<path id="Vector_14" d="M89.0117 25.835H82.553V32.2937H89.0117V25.835Z" fill="#CAF1FC"/>
<path id="Vector_15" d="M89.0117 19.3756H82.553V25.8344H89.0117V19.3756Z" fill="white"/>
<path id="Vector_16" d="M89.0117 12.9175H82.553V19.3762H89.0117V12.9175Z" fill="white"/>
<path id="Vector_17" d="M82.55 51.67H76.0913V58.1287H82.55V51.67Z" fill="#5FDBFD"/>
<path id="Vector_18" d="M82.55 45.2106H76.0913V51.6693H82.55V45.2106Z" fill="#5FDBFD"/>
<path id="Vector_19" d="M82.55 38.7525H76.0913V45.2112H82.55V38.7525Z" fill="#9CE9FE"/>
<path id="Vector_20" d="M82.55 32.2931H76.0913V38.7518H82.55V32.2931Z" fill="#9CE9FE"/>
<path id="Vector_21" d="M82.55 25.835H76.0913V32.2937H82.55V25.835Z" fill="#CAF1FC"/>
<path id="Vector_22" d="M82.55 19.3756H76.0913V25.8344H82.55V19.3756Z" fill="#CAF1FC"/>
<path id="Vector_23" d="M82.55 12.9175H76.0913V19.3762H82.55V12.9175Z" fill="white"/>
<path id="Vector_24" d="M76.093 58.1281H69.6343V64.5868H76.093V58.1281Z" fill="#9CE9FE"/>
<path id="Vector_25" d="M76.093 51.67H69.6343V58.1287H76.093V51.67Z" fill="#CAF1FC"/>
<path id="Vector_26" d="M76.093 45.2106H69.6343V51.6693H76.093V45.2106Z" fill="white"/>
<path id="Vector_27" d="M76.093 38.7525H69.6343V45.2112H76.093V38.7525Z" fill="white"/>
<path id="Vector_28" d="M76.093 32.2931H69.6343V38.7518H76.093V32.2931Z" fill="#9CE9FE"/>
<path id="Vector_29" d="M76.093 25.835H69.6343V32.2937H76.093V25.835Z" fill="#9CE9FE"/>
<path id="Vector_30" d="M76.093 19.3756H69.6343V25.8344H76.093V19.3756Z" fill="#CAF1FC"/>
<path id="Vector_31" d="M76.093 12.9175H69.6343V19.3762H76.093V12.9175Z" fill="white"/>
<path id="Vector_32" d="M69.6313 58.1281H63.1726V64.5868H69.6313V58.1281Z" fill="#9CE9FE"/>
<path id="Vector_33" d="M69.6313 51.67H63.1726V58.1287H69.6313V51.67Z" fill="#CAF1FC"/>
<path id="Vector_34" d="M69.6313 45.2106H63.1726V51.6693H69.6313V45.2106Z" fill="#CAF1FC"/>
<path id="Vector_35" d="M69.6313 38.7525H63.1726V45.2112H69.6313V38.7525Z" fill="#CAF1FC"/>
<path id="Vector_36" d="M69.6313 32.2931H63.1726V38.7518H69.6313V32.2931Z" fill="white"/>
<path id="Vector_37" d="M69.6313 25.835H63.1726V32.2937H69.6313V25.835Z" fill="white"/>
<path id="Vector_38" d="M69.6313 19.3756H63.1726V25.8344H69.6313V19.3756Z" fill="#CAF1FC"/>
<path id="Vector_39" d="M63.1743 58.1281H56.7156V64.5868H63.1743V58.1281Z" fill="#9CE9FE"/>
<path id="Vector_40" d="M63.1743 51.67H56.7156V58.1287H63.1743V51.67Z" fill="#9CE9FE"/>
<path id="Vector_41" d="M63.1743 45.2106H56.7156V51.6693H63.1743V45.2106Z" fill="#CAF1FC"/>
<path id="Vector_42" d="M63.1743 38.7525H56.7156V45.2112H63.1743V38.7525Z" fill="#CAF1FC"/>
<path id="Vector_43" d="M63.1743 32.2931H56.7156V38.7518H63.1743V32.2931Z" fill="#CAF1FC"/>
<path id="Vector_44" d="M63.1743 25.835H56.7156V32.2937H63.1743V25.835Z" fill="white"/>
<path id="Vector_45" d="M63.1743 19.3756H56.7156V25.8344H63.1743V19.3756Z" fill="white"/>
<path id="Vector_46" d="M63.1743 12.9175H56.7156V19.3762H63.1743V12.9175Z" fill="white"/>
<path id="Vector_47" d="M56.7173 58.1281H50.2585V64.5868H56.7173V58.1281Z" fill="#5FDBFD"/>
<path id="Vector_48" d="M56.7173 51.67H50.2585V58.1287H56.7173V51.67Z" fill="#9CE9FE"/>
<path id="Vector_49" d="M56.7173 45.2106H50.2585V51.6693H56.7173V45.2106Z" fill="#9CE9FE"/>
<path id="Vector_50" d="M56.7173 38.7525H50.2585V45.2112H56.7173V38.7525Z" fill="#CAF1FC"/>
<path id="Vector_51" d="M56.7173 32.2931H50.2585V38.7518H56.7173V32.2931Z" fill="#CAF1FC"/>
<path id="Vector_52" d="M56.7173 25.835H50.2585V32.2937H56.7173V25.835Z" fill="#CAF1FC"/>
<path id="Vector_53" d="M56.7173 19.3756H50.2585V25.8344H56.7173V19.3756Z" fill="white"/>
<path id="Vector_54" d="M56.7173 12.9175H50.2585V19.3762H56.7173V12.9175Z" fill="white"/>
<path id="Vector_55" d="M56.7173 6.45815H50.2585V12.9169H56.7173V6.45815Z" fill="white"/>
<path id="Vector_56" d="M50.2556 58.1281H43.7969V64.5868H50.2556V58.1281Z" fill="#5FDBFD"/>
<path id="Vector_57" d="M50.2556 51.67H43.7969V58.1287H50.2556V51.67Z" fill="#9CE9FE"/>
<path id="Vector_58" d="M50.2556 45.2106H43.7969V51.6693H50.2556V45.2106Z" fill="#9CE9FE"/>
<path id="Vector_59" d="M50.2556 38.7525H43.7969V45.2112H50.2556V38.7525Z" fill="#9CE9FE"/>
<path id="Vector_60" d="M50.2556 32.2931H43.7969V38.7518H50.2556V32.2931Z" fill="#9CE9FE"/>
<path id="Vector_61" d="M50.2556 25.835H43.7969V32.2937H50.2556V25.835Z" fill="#CAF1FC"/>
<path id="Vector_62" d="M50.2556 19.3756H43.7969V25.8344H50.2556V19.3756Z" fill="#CAF1FC"/>
<path id="Vector_63" d="M50.2556 12.9175H43.7969V19.3762H50.2556V12.9175Z" fill="white"/>
<path id="Vector_64" d="M50.2556 6.45815H43.7969V12.9169H50.2556V6.45815Z" fill="white"/>
<path id="Vector_65" d="M50.2556 0H43.7969V6.45872H50.2556V0Z" fill="white"/>
<path id="Vector_66" d="M43.7986 58.1281H37.3398V64.5868H43.7986V58.1281Z" fill="#5FDBFD"/>
<path id="Vector_67" d="M43.7986 51.67H37.3398V58.1287H43.7986V51.67Z" fill="#9CE9FE"/>
<path id="Vector_68" d="M43.7986 45.2106H37.3398V51.6693H43.7986V45.2106Z" fill="#9CE9FE"/>
<path id="Vector_69" d="M43.7986 38.7525H37.3398V45.2112H43.7986V38.7525Z" fill="#9CE9FE"/>
<path id="Vector_70" d="M43.7986 32.2931H37.3398V38.7518H43.7986V32.2931Z" fill="#9CE9FE"/>
<path id="Vector_71" d="M43.7986 25.835H37.3398V32.2937H43.7986V25.835Z" fill="#9CE9FE"/>
<path id="Vector_72" d="M43.7986 19.3756H37.3398V25.8344H43.7986V19.3756Z" fill="#CAF1FC"/>
<path id="Vector_73" d="M43.7986 12.9175H37.3398V19.3762H43.7986V12.9175Z" fill="#CAF1FC"/>
<path id="Vector_74" d="M43.7986 6.45815H37.3398V12.9169H43.7986V6.45815Z" fill="white"/>
<path id="Vector_75" d="M43.7986 0H37.3398V6.45872H43.7986V0Z" fill="white"/>
<path id="Vector_76" d="M37.3418 58.1281H30.8831V64.5868H37.3418V58.1281Z" fill="#5FDBFD"/>
<path id="Vector_77" d="M37.3418 51.67H30.8831V58.1287H37.3418V51.67Z" fill="#5FDBFD"/>
<path id="Vector_78" d="M37.3418 45.2106H30.8831V51.6693H37.3418V45.2106Z" fill="#9CE9FE"/>
<path id="Vector_79" d="M37.3418 38.7525H30.8831V45.2112H37.3418V38.7525Z" fill="#9CE9FE"/>
<path id="Vector_80" d="M37.3418 32.2931H30.8831V38.7518H37.3418V32.2931Z" fill="#9CE9FE"/>
<path id="Vector_81" d="M37.3418 25.835H30.8831V32.2937H37.3418V25.835Z" fill="#9CE9FE"/>
<path id="Vector_82" d="M37.3418 19.3756H30.8831V25.8344H37.3418V19.3756Z" fill="#CAF1FC"/>
<path id="Vector_83" d="M37.3418 12.9175H30.8831V19.3762H37.3418V12.9175Z" fill="#CAF1FC"/>
<path id="Vector_84" d="M37.3418 6.45815H30.8831V12.9169H37.3418V6.45815Z" fill="#CAF1FC"/>
<path id="Vector_85" d="M37.3418 0H30.8831V6.45872H37.3418V0Z" fill="white"/>
<path id="Vector_86" d="M30.8799 58.1281H24.4211V64.5868H30.8799V58.1281Z" fill="#5FDBFD"/>
<path id="Vector_87" d="M30.8799 51.67H24.4211V58.1287H30.8799V51.67Z" fill="#5FDBFD"/>
<path id="Vector_88" d="M30.8799 45.2106H24.4211V51.6693H30.8799V45.2106Z" fill="#5FDBFD"/>
<path id="Vector_89" d="M30.8799 38.7525H24.4211V45.2112H30.8799V38.7525Z" fill="#9CE9FE"/>
<path id="Vector_90" d="M30.8799 32.2931H24.4211V38.7518H30.8799V32.2931Z" fill="#9CE9FE"/>
<path id="Vector_91" d="M30.8799 25.835H24.4211V32.2937H30.8799V25.835Z" fill="#9CE9FE"/>
<path id="Vector_92" d="M30.8799 19.3756H24.4211V25.8344H30.8799V19.3756Z" fill="#9CE9FE"/>
<path id="Vector_93" d="M30.8799 12.9175H24.4211V19.3762H30.8799V12.9175Z" fill="#CAF1FC"/>
<path id="Vector_94" d="M30.8799 6.45815H24.4211V12.9169H30.8799V6.45815Z" fill="#CAF1FC"/>
<path id="Vector_95" d="M30.8799 0H24.4211V6.45872H30.8799V0Z" fill="white"/>
<path id="Vector_96" d="M24.4231 58.1281H17.9644V64.5868H24.4231V58.1281Z" fill="#5FDBFD"/>
<path id="Vector_97" d="M24.4231 51.67H17.9644V58.1287H24.4231V51.67Z" fill="#5FDBFD"/>
<path id="Vector_98" d="M24.4231 45.2106H17.9644V51.6693H24.4231V45.2106Z" fill="#5FDBFD"/>
<path id="Vector_99" d="M24.4231 38.7525H17.9644V45.2112H24.4231V38.7525Z" fill="#5FDBFD"/>
<path id="Vector_100" d="M24.4231 32.2931H17.9644V38.7518H24.4231V32.2931Z" fill="#9CE9FE"/>
<path id="Vector_101" d="M24.4231 25.835H17.9644V32.2937H24.4231V25.835Z" fill="#9CE9FE"/>
<path id="Vector_102" d="M24.4231 19.3756H17.9644V25.8344H24.4231V19.3756Z" fill="#9CE9FE"/>
<path id="Vector_103" d="M24.4231 12.9175H17.9644V19.3762H24.4231V12.9175Z" fill="#CAF1FC"/>
<path id="Vector_104" d="M24.4231 6.45815H17.9644V12.9169H24.4231V6.45815Z" fill="#CAF1FC"/>
<path id="Vector_105" d="M24.4231 0H17.9644V6.45872H24.4231V0Z" fill="white"/>
<path id="Vector_106" d="M17.9612 51.67H11.5024V58.1287H17.9612V51.67Z" fill="#5FDBFD"/>
<path id="Vector_107" d="M17.9612 45.2106H11.5024V51.6693H17.9612V45.2106Z" fill="#5FDBFD"/>
<path id="Vector_108" d="M17.9612 38.7525H11.5024V45.2112H17.9612V38.7525Z" fill="#5FDBFD"/>
<path id="Vector_109" d="M17.9612 32.2931H11.5024V38.7518H17.9612V32.2931Z" fill="#5FDBFD"/>
<path id="Vector_110" d="M17.9612 25.835H11.5024V32.2937H17.9612V25.835Z" fill="#9CE9FE"/>
<path id="Vector_111" d="M17.9612 19.3756H11.5024V25.8344H17.9612V19.3756Z" fill="#9CE9FE"/>
<path id="Vector_112" d="M17.9612 12.9175H11.5024V19.3762H17.9612V12.9175Z" fill="#CAF1FC"/>
<path id="Vector_113" d="M17.9612 6.45815H11.5024V12.9169H17.9612V6.45815Z" fill="white"/>
<path id="Vector_114" d="M17.9612 0H11.5024V6.45872H17.9612V0Z" fill="white"/>
<path id="Vector_115" d="M11.5044 51.67H5.04565V58.1287H11.5044V51.67Z" fill="#5FDBFD"/>
<path id="Vector_116" d="M11.5044 45.2106H5.04565V51.6693H11.5044V45.2106Z" fill="#5FDBFD"/>
<path id="Vector_117" d="M11.5044 38.7525H5.04565V45.2112H11.5044V38.7525Z" fill="#5FDBFD"/>
<path id="Vector_118" d="M11.5044 32.2931H5.04565V38.7518H11.5044V32.2931Z" fill="#5FDBFD"/>
<path id="Vector_119" d="M11.5044 25.835H5.04565V32.2937H11.5044V25.835Z" fill="#9CE9FE"/>
<path id="Vector_120" d="M11.5044 19.3756H5.04565V25.8344H11.5044V19.3756Z" fill="#CAF1FC"/>
<path id="Vector_121" d="M11.5044 12.9175H5.04565V19.3762H11.5044V12.9175Z" fill="#CAF1FC"/>
<path id="Vector_122" d="M11.5044 6.45815H5.04565V12.9169H11.5044V6.45815Z" fill="white"/>
<path id="Vector_123" d="M5.04735 51.67H-1.41138V58.1287H5.04735V51.67Z" fill="#5FDBFD"/>
<path id="Vector_124" d="M5.04735 45.2106H-1.41138V51.6693H5.04735V45.2106Z" fill="#5FDBFD"/>
<path id="Vector_125" d="M5.04735 38.7525H-1.41138V45.2112H5.04735V38.7525Z" fill="#5FDBFD"/>
<path id="Vector_126" d="M5.04735 32.2931H-1.41138V38.7518H5.04735V32.2931Z" fill="#9CE9FE"/>
<path id="Vector_127" d="M5.04735 25.835H-1.41138V32.2937H5.04735V25.835Z" fill="#CAF1FC"/>
<path id="Vector_128" d="M5.04735 19.3756H-1.41138V25.8344H5.04735V19.3756Z" fill="#CAF1FC"/>
<path id="Vector_129" d="M5.04735 12.9175H-1.41138V19.3762H5.04735V12.9175Z" fill="white"/>
</g>
</svg>
