<svg width="180" height="138" viewBox="0 0 180 138" fill="none" xmlns="http://www.w3.org/2000/svg">
<path d="M189.333 126.556H178.815V137.075H189.333V126.556Z" fill="#5FDBFD"/>
<path d="M189.333 116.038H178.815V126.556H189.333V116.038Z" fill="#5FDBFD"/>
<path d="M189.333 105.519H178.815V116.038H189.333V105.519Z" fill="#9CE9FE"/>
<path d="M189.333 95.0006H178.815V105.519H189.333V95.0006Z" fill="#9CE9FE"/>
<path d="M189.333 84.4821H178.815V95.0006H189.333V84.4821Z" fill="#CAF1FC"/>
<path d="M189.333 73.9636H178.815V84.4821H189.333V73.9636Z" fill="#CAF1FC"/>
<path d="M189.333 63.4451H178.815V73.9636H189.333V63.4451Z" fill="#CAF1FC"/>
<path d="M189.333 52.9266H178.815V63.4451H189.333V52.9266Z" fill="white"/>
<path d="M189.333 42.4081H178.815V52.9266H189.333V42.4081Z" fill="white"/>
<path d="M189.333 31.8895H178.815V42.408H189.333V31.8895Z" fill="#CAF1FC"/>
<path d="M189.333 21.371H178.815V31.8896H189.333V21.371Z" fill="white"/>
<path d="M189.333 10.8525H178.815V21.371H189.333V10.8525Z" fill="white"/>
<path d="M178.815 126.556H168.296V137.075H178.815V126.556Z" fill="#5FDBFD"/>
<path d="M178.815 116.038H168.296V126.556H178.815V116.038Z" fill="#5FDBFD"/>
<path d="M178.815 105.519H168.296V116.038H178.815V105.519Z" fill="#5FDBFD"/>
<path d="M178.815 95.0006H168.296V105.519H178.815V95.0006Z" fill="#9CE9FE"/>
<path d="M178.815 84.4821H168.296V95.0006H178.815V84.4821Z" fill="#9CE9FE"/>
<path d="M178.815 73.9636H168.296V84.4821H178.815V73.9636Z" fill="#CAF1FC"/>
<path d="M178.815 63.4451H168.296V73.9636H178.815V63.4451Z" fill="#CAF1FC"/>
<path d="M178.815 52.9266H168.296V63.4451H178.815V52.9266Z" fill="#CAF1FC"/>
<path d="M178.815 42.4081H168.296V52.9266H178.815V42.4081Z" fill="white"/>
<path d="M178.815 31.8895H168.296V42.408H178.815V31.8895Z" fill="white"/>
<path d="M178.815 21.371H168.296V31.8896H178.815V21.371Z" fill="white"/>
<path d="M168.296 126.556H157.778V137.075H168.296V126.556Z" fill="#5FDBFD"/>
<path d="M168.296 116.038H157.778V126.556H168.296V116.038Z" fill="#5FDBFD"/>
<path d="M168.296 105.519H157.778V116.038H168.296V105.519Z" fill="#5FDBFD"/>
<path d="M168.296 95.0006H157.778V105.519H168.296V95.0006Z" fill="#5FDBFD"/>
<path d="M168.296 84.4821H157.778V95.0006H168.296V84.4821Z" fill="#9CE9FE"/>
<path d="M168.296 73.9636H157.778V84.4821H168.296V73.9636Z" fill="#9CE9FE"/>
<path d="M168.296 63.4451H157.778V73.9636H168.296V63.4451Z" fill="#CAF1FC"/>
<path d="M168.296 52.9266H157.778V63.4451H168.296V52.9266Z" fill="#CAF1FC"/>
<path d="M168.296 42.4081H157.778V52.9266H168.296V42.4081Z" fill="white"/>
<path d="M168.296 31.8895H157.778V42.408H168.296V31.8895Z" fill="white"/>
<path d="M157.778 126.556H147.259V137.075H157.778V126.556Z" fill="#5FDBFD"/>
<path d="M157.778 116.038H147.259V126.556H157.778V116.038Z" fill="#5FDBFD"/>
<path d="M157.778 105.519H147.259V116.038H157.778V105.519Z" fill="#5FDBFD"/>
<path d="M157.778 95.0006H147.259V105.519H157.778V95.0006Z" fill="#5FDBFD"/>
<path d="M157.778 84.4821H147.259V95.0006H157.778V84.4821Z" fill="#9CE9FE"/>
<path d="M157.778 73.9636H147.259V84.4821H157.778V73.9636Z" fill="#9CE9FE"/>
<path d="M157.778 63.4451H147.259V73.9636H157.778V63.4451Z" fill="#CAF1FC"/>
<path d="M157.778 52.9266H147.259V63.4451H157.778V52.9266Z" fill="#CAF1FC"/>
<path d="M157.778 42.4081H147.259V52.9266H157.778V42.4081Z" fill="white"/>
<path d="M157.778 31.8895H147.259V42.408H157.778V31.8895Z" fill="white"/>
<path d="M157.778 21.371H147.259V31.8896H157.778V21.371Z" fill="white"/>
<path d="M147.259 126.556H136.741V137.075H147.259V126.556Z" fill="#5FDBFD"/>
<path d="M147.259 116.038H136.741V126.556H147.259V116.038Z" fill="#5FDBFD"/>
<path d="M147.259 105.519H136.741V116.038H147.259V105.519Z" fill="#5FDBFD"/>
<path d="M147.259 95.0006H136.741V105.519H147.259V95.0006Z" fill="#5FDBFD"/>
<path d="M147.259 84.4821H136.741V95.0006H147.259V84.4821Z" fill="#9CE9FE"/>
<path d="M147.259 73.9636H136.741V84.4821H147.259V73.9636Z" fill="#9CE9FE"/>
<path d="M147.259 63.4451H136.741V73.9636H147.259V63.4451Z" fill="#CAF1FC"/>
<path d="M147.259 52.9266H136.741V63.4451H147.259V52.9266Z" fill="#CAF1FC"/>
<path d="M147.259 42.4081H136.741V52.9266H147.259V42.4081Z" fill="white"/>
<path d="M147.259 31.8895H136.741V42.408H147.259V31.8895Z" fill="#CAF1FC"/>
<path d="M147.259 21.371H136.741V31.8896H147.259V21.371Z" fill="white"/>
<path d="M147.259 10.8525H136.741V21.371H147.259V10.8525Z" fill="white"/>
<path d="M136.741 126.556H126.222V137.075H136.741V126.556Z" fill="#5FDBFD"/>
<path d="M136.741 116.038H126.222V126.556H136.741V116.038Z" fill="#5FDBFD"/>
<path d="M136.741 105.519H126.222V116.038H136.741V105.519Z" fill="#5FDBFD"/>
<path d="M136.741 95.0006H126.222V105.519H136.741V95.0006Z" fill="#5FDBFD"/>
<path d="M136.741 84.4821H126.222V95.0006H136.741V84.4821Z" fill="#9CE9FE"/>
<path d="M136.741 73.9636H126.222V84.4821H136.741V73.9636Z" fill="#9CE9FE"/>
<path d="M136.741 63.4451H126.222V73.9636H136.741V63.4451Z" fill="#CAF1FC"/>
<path d="M136.741 52.9266H126.222V63.4451H136.741V52.9266Z" fill="#CAF1FC"/>
<path d="M136.741 42.4081H126.222V52.9266H136.741V42.4081Z" fill="white"/>
<path d="M136.741 31.8895H126.222V42.408H136.741V31.8895Z" fill="#CAF1FC"/>
<path d="M136.741 21.371H126.222V31.8896H136.741V21.371Z" fill="#CAF1FC"/>
<path d="M136.741 10.8525H126.222V21.371H136.741V10.8525Z" fill="white"/>
<path d="M126.222 126.556H115.704V137.075H126.222V126.556Z" fill="#5FDBFD"/>
<path d="M126.222 116.038H115.704V126.556H126.222V116.038Z" fill="#5FDBFD"/>
<path d="M126.222 105.519H115.704V116.038H126.222V105.519Z" fill="#5FDBFD"/>
<path d="M126.222 95.0006H115.704V105.519H126.222V95.0006Z" fill="#5FDBFD"/>
<path d="M126.222 84.4821H115.704V95.0006H126.222V84.4821Z" fill="#9CE9FE"/>
<path d="M126.222 73.9636H115.704V84.4821H126.222V73.9636Z" fill="#9CE9FE"/>
<path d="M126.222 63.4451H115.704V73.9636H126.222V63.4451Z" fill="#CAF1FC"/>
<path d="M126.222 52.9266H115.704V63.4451H126.222V52.9266Z" fill="white"/>
<path d="M126.222 42.4081H115.704V52.9266H126.222V42.4081Z" fill="#CAF1FC"/>
<path d="M126.222 31.8895H115.704V42.408H126.222V31.8895Z" fill="#CAF1FC"/>
<path d="M126.222 21.371H115.704V31.8896H126.222V21.371Z" fill="#CAF1FC"/>
<path d="M126.222 10.8525H115.704V21.371H126.222V10.8525Z" fill="white"/>
<path d="M115.704 126.556H105.185V137.075H115.704V126.556Z" fill="#5FDBFD"/>
<path d="M115.704 116.038H105.185V126.556H115.704V116.038Z" fill="#5FDBFD"/>
<path d="M115.704 105.519H105.185V116.038H115.704V105.519Z" fill="#5FDBFD"/>
<path d="M115.704 95.0006H105.185V105.519H115.704V95.0006Z" fill="#5FDBFD"/>
<path d="M115.704 84.4821H105.185V95.0006H115.704V84.4821Z" fill="#9CE9FE"/>
<path d="M115.704 73.9636H105.185V84.4821H115.704V73.9636Z" fill="#9CE9FE"/>
<path d="M115.704 63.4451H105.185V73.9636H115.704V63.4451Z" fill="#CAF1FC"/>
<path d="M115.704 52.9266H105.185V63.4451H115.704V52.9266Z" fill="#9CE9FE"/>
<path d="M115.704 42.4081H105.185V52.9266H115.704V42.4081Z" fill="#CAF1FC"/>
<path d="M115.704 31.8895H105.185V42.408H115.704V31.8895Z" fill="#CAF1FC"/>
<path d="M115.704 21.371H105.185V31.8896H115.704V21.371Z" fill="#CAF1FC"/>
<path d="M115.704 10.8525H105.185V21.371H115.704V10.8525Z" fill="white"/>
<path d="M105.185 126.556H94.6667V137.075H105.185V126.556Z" fill="#5FDBFD"/>
<path d="M105.185 116.038H94.6667V126.556H105.185V116.038Z" fill="#5FDBFD"/>
<path d="M105.185 105.519H94.6667V116.038H105.185V105.519Z" fill="#5FDBFD"/>
<path d="M105.185 95.0006H94.6667V105.519H105.185V95.0006Z" fill="#9CE9FE"/>
<path d="M105.185 84.4821H94.6667V95.0006H105.185V84.4821Z" fill="#9CE9FE"/>
<path d="M105.185 73.9636H94.6667V84.4821H105.185V73.9636Z" fill="#CAF1FC"/>
<path d="M105.185 63.4451H94.6667V73.9636H105.185V63.4451Z" fill="#9CE9FE"/>
<path d="M105.185 52.9266H94.6667V63.4451H105.185V52.9266Z" fill="#9CE9FE"/>
<path d="M105.185 42.4081H94.6667V52.9266H105.185V42.4081Z" fill="#9CE9FE"/>
<path d="M105.185 31.8895H94.6667V42.408H105.185V31.8895Z" fill="#CAF1FC"/>
<path d="M105.185 21.371H94.6667V31.8896H105.185V21.371Z" fill="#CAF1FC"/>
<path d="M105.185 10.8525H94.6667V21.371H105.185V10.8525Z" fill="white"/>
<path d="M94.6667 116.038H84.1482V126.556H94.6667V116.038Z" fill="#5FDBFD"/>
<path d="M94.6667 105.519H84.1482V116.038H94.6667V105.519Z" fill="#9CE9FE"/>
<path d="M94.6667 95.0006H84.1482V105.519H94.6667V95.0006Z" fill="#9CE9FE"/>
<path d="M94.6667 84.4821H84.1482V95.0006H94.6667V84.4821Z" fill="#CAF1FC"/>
<path d="M94.6667 73.9636H84.1482V84.4821H94.6667V73.9636Z" fill="#9CE9FE"/>
<path d="M94.6667 63.4451H84.1482V73.9636H94.6667V63.4451Z" fill="#9CE9FE"/>
<path d="M94.6667 52.9266H84.1482V63.4451H94.6667V52.9266Z" fill="#9CE9FE"/>
<path d="M94.6667 42.4081H84.1482V52.9266H94.6667V42.4081Z" fill="#CAF1FC"/>
<path d="M94.6667 31.8895H84.1482V42.408H94.6667V31.8895Z" fill="#CAF1FC"/>
<path d="M94.6667 21.371H84.1482V31.8896H94.6667V21.371Z" fill="white"/>
<path d="M84.1482 116.038H73.6296V126.556H84.1482V116.038Z" fill="#9CE9FE"/>
<path d="M84.1482 105.519H73.6296V116.038H84.1482V105.519Z" fill="#CAF1FC"/>
<path d="M84.1482 95.0006H73.6296V105.519H84.1482V95.0006Z" fill="white"/>
<path d="M84.1482 84.4821H73.6296V95.0006H84.1482V84.4821Z" fill="white"/>
<path d="M84.1482 73.9636H73.6296V84.4821H84.1482V73.9636Z" fill="#9CE9FE"/>
<path d="M84.1482 63.4451H73.6296V73.9636H84.1482V63.4451Z" fill="#9CE9FE"/>
<path d="M84.1482 52.9266H73.6296V63.4451H84.1482V52.9266Z" fill="#CAF1FC"/>
<path d="M84.1482 42.4081H73.6296V52.9266H84.1482V42.4081Z" fill="#CAF1FC"/>
<path d="M84.1482 31.8895H73.6296V42.408H84.1482V31.8895Z" fill="#CAF1FC"/>
<path d="M84.1482 21.371H73.6296V31.8896H84.1482V21.371Z" fill="white"/>
<path d="M73.6296 116.038H63.1111V126.556H73.6296V116.038Z" fill="#9CE9FE"/>
<path d="M73.6296 105.519H63.1111V116.038H73.6296V105.519Z" fill="#CAF1FC"/>
<path d="M73.6296 95.0006H63.1111V105.519H73.6296V95.0006Z" fill="#CAF1FC"/>
<path d="M73.6296 84.4821H63.1111V95.0006H73.6296V84.4821Z" fill="white"/>
<path d="M73.6296 73.9636H63.1111V84.4821H73.6296V73.9636Z" fill="white"/>
<path d="M73.6296 63.4451H63.1111V73.9636H73.6296V63.4451Z" fill="#9CE9FE"/>
<path d="M73.6296 52.9266H63.1111V63.4451H73.6296V52.9266Z" fill="#CAF1FC"/>
<path d="M73.6296 42.4081H63.1111V52.9266H73.6296V42.4081Z" fill="white"/>
<path d="M73.6296 31.8895H63.1111V42.408H73.6296V31.8895Z" fill="white"/>
<path d="M63.1112 116.038H52.5927V126.556H63.1112V116.038Z" fill="#5FDBFD"/>
<path d="M63.1112 105.519H52.5927V116.038H63.1112V105.519Z" fill="#9CE9FE"/>
<path d="M63.1112 95.0006H52.5927V105.519H63.1112V95.0006Z" fill="#CAF1FC"/>
<path d="M63.1112 84.4821H52.5927V95.0006H63.1112V84.4821Z" fill="#CAF1FC"/>
<path d="M63.1112 73.9636H52.5927V84.4821H63.1112V73.9636Z" fill="white"/>
<path d="M63.1112 63.4451H52.5927V73.9636H63.1112V63.4451Z" fill="white"/>
<path d="M63.1112 52.9266H52.5927V63.4451H63.1112V52.9266Z" fill="white"/>
<path d="M52.5926 116.038H42.0741V126.556H52.5926V116.038Z" fill="#5FDBFD"/>
<path d="M52.5926 105.519H42.0741V116.038H52.5926V105.519Z" fill="#9CE9FE"/>
<path d="M52.5926 95.0006H42.0741V105.519H52.5926V95.0006Z" fill="#9CE9FE"/>
<path d="M52.5926 84.4821H42.0741V95.0006H52.5926V84.4821Z" fill="#CAF1FC"/>
<path d="M52.5926 73.9636H42.0741V84.4821H52.5926V73.9636Z" fill="#CAF1FC"/>
<path d="M52.5926 63.4451H42.0741V73.9636H52.5926V63.4451Z" fill="white"/>
<path d="M42.0742 116.038H31.5557V126.556H42.0742V116.038Z" fill="#5FDBFD"/>
<path d="M42.0742 105.519H31.5557V116.038H42.0742V105.519Z" fill="#5FDBFD"/>
<path d="M42.0742 95.0006H31.5557V105.519H42.0742V95.0006Z" fill="#9CE9FE"/>
<path d="M42.0742 84.4821H31.5557V95.0006H42.0742V84.4821Z" fill="#CAF1FC"/>
<path d="M42.0742 73.9636H31.5557V84.4821H42.0742V73.9636Z" fill="#CAF1FC"/>
<path d="M42.0742 63.4451H31.5557V73.9636H42.0742V63.4451Z" fill="white"/>
<path d="M31.5556 116.038H21.0371V126.556H31.5556V116.038Z" fill="#5FDBFD"/>
<path d="M31.5556 105.519H21.0371V116.038H31.5556V105.519Z" fill="#5FDBFD"/>
<path d="M31.5556 95.0006H21.0371V105.519H31.5556V95.0006Z" fill="#9CE9FE"/>
<path d="M31.5556 84.4821H21.0371V95.0006H31.5556V84.4821Z" fill="#CAF1FC"/>
<path d="M31.5556 73.9636H21.0371V84.4821H31.5556V73.9636Z" fill="white"/>
<path d="M31.5556 63.4451H21.0371V73.9636H31.5556V63.4451Z" fill="white"/>
<path d="M21.0371 105.519H10.5186V116.038H21.0371V105.519Z" fill="#5FDBFD"/>
<path d="M21.0371 95.0006H10.5186V105.519H21.0371V95.0006Z" fill="#9CE9FE"/>
<path d="M21.0371 84.4821H10.5186V95.0006H21.0371V84.4821Z" fill="#CAF1FC"/>
<path d="M21.0371 73.9636H10.5186V84.4821H21.0371V73.9636Z" fill="white"/>
<path d="M10.5185 95.0006H0V105.519H10.5185V95.0006Z" fill="#CAF1FC"/>
<path d="M10.5185 84.4821H0V95.0006H10.5185V84.4821Z" fill="white"/>
</svg>
