<svg width="393" height="200" viewBox="0 0 393 200" fill="none" xmlns="http://www.w3.org/2000/svg">
<path d="M77.5185 189.333H67V199.852H77.5185V189.333Z" fill="#754C24"/>
<path d="M77.5185 178.815H67V189.333H77.5185V178.815Z" fill="#754C24"/>
<path d="M77.5185 168.296H67V178.815H77.5185V168.296Z" fill="#754C24"/>
<path d="M77.5185 157.778H67V168.296H77.5185V157.778Z" fill="#754C24"/>
<path d="M77.5185 147.259H67V157.778H77.5185V147.259Z" fill="#754C24"/>
<path d="M77.5185 136.741H67V147.259H77.5185V136.741Z" fill="#754C24"/>
<path d="M77.5185 126.222H67V136.741H77.5185V126.222Z" fill="#754C24"/>
<path d="M77.5185 115.704H67V126.222H77.5185V115.704Z" fill="#754C24"/>
<path d="M77.5185 105.185H67V115.704H77.5185V105.185Z" fill="#8F6436"/>
<path d="M77.5185 94.6666H67V105.185H77.5185V94.6666Z" fill="#8F6436"/>
<path d="M77.5185 84.1481H67V94.6666H77.5185V84.1481Z" fill="#754C24"/>
<path d="M77.5185 73.6296H67V84.1481H77.5185V73.6296Z" fill="#754C24"/>
<path d="M77.5185 63.1111H67V73.6296H77.5185V63.1111Z" fill="#754C24"/>
<path d="M77.5185 52.5925H67V63.111H77.5185V52.5925Z" fill="#754C24"/>
<path d="M77.5185 42.074H67V52.5926H77.5185V42.074Z" fill="#754C24"/>
<path d="M77.5185 31.5555H67V42.074H77.5185V31.5555Z" fill="#68401F"/>
<path d="M77.5185 21.037H67V31.5555H77.5185V21.037Z" fill="#00C29B"/>
<path d="M77.5185 10.5185H67V21.037H77.5185V10.5185Z" fill="#00E3B5"/>
<path d="M77.5185 -3.05176e-05H67V10.5185H77.5185V-3.05176e-05Z" fill="#80EED3"/>
<path d="M67 189.333H56.4814V199.852H67V189.333Z" fill="#754C24"/>
<path d="M67 178.815H56.4814V189.333H67V178.815Z" fill="#754C24"/>
<path d="M67 168.296H56.4814V178.815H67V168.296Z" fill="#754C24"/>
<path d="M67 157.778H56.4814V168.296H67V157.778Z" fill="#754C24"/>
<path d="M67 147.259H56.4814V157.778H67V147.259Z" fill="#754C24"/>
<path d="M67 136.741H56.4814V147.259H67V136.741Z" fill="#754C24"/>
<path d="M67 126.222H56.4814V136.741H67V126.222Z" fill="#754C24"/>
<path d="M67 115.704H56.4814V126.222H67V115.704Z" fill="#754C24"/>
<path d="M67 105.185H56.4814V115.704H67V105.185Z" fill="#8F6436"/>
<path d="M67 94.6666H56.4814V105.185H67V94.6666Z" fill="#754C24"/>
<path d="M67 84.1481H56.4814V94.6666H67V84.1481Z" fill="#754C24"/>
<path d="M67 73.6296H56.4814V84.1481H67V73.6296Z" fill="#8F6436"/>
<path d="M67 63.1111H56.4814V73.6296H67V63.1111Z" fill="#754C24"/>
<path d="M67 52.5925H56.4814V63.111H67V52.5925Z" fill="#754C24"/>
<path d="M67 42.074H56.4814V52.5926H67V42.074Z" fill="#754C24"/>
<path d="M67 31.5555H56.4814V42.074H67V31.5555Z" fill="#68401F"/>
<path d="M67 21.037H56.4814V31.5555H67V21.037Z" fill="#00C29B"/>
<path d="M67 10.5185H56.4814V21.037H67V10.5185Z" fill="#00E3B5"/>
<path d="M67 -3.05176e-05H56.4814V10.5185H67V-3.05176e-05Z" fill="#80EED3"/>
<path d="M56.4814 189.333H45.9629V199.852H56.4814V189.333Z" fill="#754C24"/>
<path d="M56.4814 178.815H45.9629V189.333H56.4814V178.815Z" fill="#754C24"/>
<path d="M56.4814 168.296H45.9629V178.815H56.4814V168.296Z" fill="#754C24"/>
<path d="M56.4814 157.778H45.9629V168.296H56.4814V157.778Z" fill="#754C24"/>
<path d="M56.4814 147.259H45.9629V157.778H56.4814V147.259Z" fill="#754C24"/>
<path d="M56.4814 136.741H45.9629V147.259H56.4814V136.741Z" fill="#754C24"/>
<path d="M56.4814 126.222H45.9629V136.741H56.4814V126.222Z" fill="#754C24"/>
<path d="M56.4814 115.704H45.9629V126.222H56.4814V115.704Z" fill="#754C24"/>
<path d="M56.4814 105.185H45.9629V115.704H56.4814V105.185Z" fill="#754C24"/>
<path d="M56.4814 94.6666H45.9629V105.185H56.4814V94.6666Z" fill="#754C24"/>
<path d="M56.4814 84.1481H45.9629V94.6666H56.4814V84.1481Z" fill="#8F6436"/>
<path d="M56.4814 73.6296H45.9629V84.1481H56.4814V73.6296Z" fill="#F9C62C"/>
<path d="M56.4814 63.1111H45.9629V73.6296H56.4814V63.1111Z" fill="#8F6436"/>
<path d="M56.4814 52.5925H45.9629V63.111H56.4814V52.5925Z" fill="#754C24"/>
<path d="M56.4814 42.074H45.9629V52.5926H56.4814V42.074Z" fill="#68401F"/>
<path d="M56.4814 31.5555H45.9629V42.074H56.4814V31.5555Z" fill="#00C29B"/>
<path d="M56.4814 21.037H45.9629V31.5555H56.4814V21.037Z" fill="#00E3B5"/>
<path d="M56.4814 10.5185H45.9629V21.037H56.4814V10.5185Z" fill="#00E3B5"/>
<path d="M56.4814 -3.05176e-05H45.9629V10.5185H56.4814V-3.05176e-05Z" fill="#80EED3"/>
<path d="M45.9631 189.333H35.4446V199.852H45.9631V189.333Z" fill="#754C24"/>
<path d="M45.9631 178.815H35.4446V189.333H45.9631V178.815Z" fill="#754C24"/>
<path d="M45.9631 168.296H35.4446V178.815H45.9631V168.296Z" fill="#754C24"/>
<path d="M45.9631 157.778H35.4446V168.296H45.9631V157.778Z" fill="#754C24"/>
<path d="M45.9631 147.259H35.4446V157.778H45.9631V147.259Z" fill="#754C24"/>
<path d="M45.9631 136.741H35.4446V147.259H45.9631V136.741Z" fill="#754C24"/>
<path d="M45.9631 126.222H35.4446V136.741H45.9631V126.222Z" fill="#754C24"/>
<path d="M45.9631 115.704H35.4446V126.222H45.9631V115.704Z" fill="#754C24"/>
<path d="M45.9631 105.185H35.4446V115.704H45.9631V105.185Z" fill="#754C24"/>
<path d="M45.9631 94.6666H35.4446V105.185H45.9631V94.6666Z" fill="#754C24"/>
<path d="M45.9631 84.1481H35.4446V94.6666H45.9631V84.1481Z" fill="#8F6436"/>
<path d="M45.9631 73.6296H35.4446V84.1481H45.9631V73.6296Z" fill="#F9C62C"/>
<path d="M45.9631 63.1111H35.4446V73.6296H45.9631V63.1111Z" fill="#8F6436"/>
<path d="M45.9631 52.5925H35.4446V63.111H45.9631V52.5925Z" fill="#754C24"/>
<path d="M45.9631 42.074H35.4446V52.5926H45.9631V42.074Z" fill="#68401F"/>
<path d="M45.9631 31.5555H35.4446V42.074H45.9631V31.5555Z" fill="#00C29B"/>
<path d="M45.9631 21.037H35.4446V31.5555H45.9631V21.037Z" fill="#00E3B5"/>
<path d="M45.9631 10.5185H35.4446V21.037H45.9631V10.5185Z" fill="#00E3B5"/>
<path d="M45.9631 -3.05176e-05H35.4446V10.5185H45.9631V-3.05176e-05Z" fill="#80EED3"/>
<path d="M35.4445 189.333H24.926V199.852H35.4445V189.333Z" fill="#754C24"/>
<path d="M35.4445 178.815H24.926V189.333H35.4445V178.815Z" fill="#754C24"/>
<path d="M35.4445 168.296H24.926V178.815H35.4445V168.296Z" fill="#754C24"/>
<path d="M35.4445 157.778H24.926V168.296H35.4445V157.778Z" fill="#754C24"/>
<path d="M35.4445 147.259H24.926V157.778H35.4445V147.259Z" fill="#754C24"/>
<path d="M35.4445 136.741H24.926V147.259H35.4445V136.741Z" fill="#754C24"/>
<path d="M35.4445 126.222H24.926V136.741H35.4445V126.222Z" fill="#754C24"/>
<path d="M35.4445 115.704H24.926V126.222H35.4445V115.704Z" fill="#754C24"/>
<path d="M35.4445 105.185H24.926V115.704H35.4445V105.185Z" fill="#754C24"/>
<path d="M35.4445 94.6666H24.926V105.185H35.4445V94.6666Z" fill="#754C24"/>
<path d="M35.4445 84.1481H24.926V94.6666H35.4445V84.1481Z" fill="#754C24"/>
<path d="M35.4445 73.6296H24.926V84.1481H35.4445V73.6296Z" fill="#8F6436"/>
<path d="M35.4445 63.1111H24.926V73.6296H35.4445V63.1111Z" fill="#754C24"/>
<path d="M35.4445 52.5925H24.926V63.111H35.4445V52.5925Z" fill="#754C24"/>
<path d="M35.4445 42.074H24.926V52.5926H35.4445V42.074Z" fill="#68401F"/>
<path d="M35.4445 31.5555H24.926V42.074H35.4445V31.5555Z" fill="#00C29B"/>
<path d="M35.4445 21.037H24.926V31.5555H35.4445V21.037Z" fill="#00E3B5"/>
<path d="M35.4445 10.5185H24.926V21.037H35.4445V10.5185Z" fill="#00E3B5"/>
<path d="M35.4445 -3.05176e-05H24.926V10.5185H35.4445V-3.05176e-05Z" fill="#80EED3"/>
<path d="M24.926 189.333H14.4075V199.852H24.926V189.333Z" fill="#754C24"/>
<path d="M24.926 178.815H14.4075V189.333H24.926V178.815Z" fill="#754C24"/>
<path d="M24.926 168.296H14.4075V178.815H24.926V168.296Z" fill="#754C24"/>
<path d="M24.926 157.778H14.4075V168.296H24.926V157.778Z" fill="#754C24"/>
<path d="M24.926 147.259H14.4075V157.778H24.926V147.259Z" fill="#754C24"/>
<path d="M24.926 136.741H14.4075V147.259H24.926V136.741Z" fill="#754C24"/>
<path d="M24.926 126.222H14.4075V136.741H24.926V126.222Z" fill="#754C24"/>
<path d="M24.926 115.704H14.4075V126.222H24.926V115.704Z" fill="#754C24"/>
<path d="M24.926 105.185H14.4075V115.704H24.926V105.185Z" fill="#754C24"/>
<path d="M24.926 94.6666H14.4075V105.185H24.926V94.6666Z" fill="#8F6436"/>
<path d="M24.926 84.1481H14.4075V94.6666H24.926V84.1481Z" fill="#754C24"/>
<path d="M24.926 73.6296H14.4075V84.1481H24.926V73.6296Z" fill="#8F6436"/>
<path d="M24.926 63.1111H14.4075V73.6296H24.926V63.1111Z" fill="#754C24"/>
<path d="M24.926 52.5925H14.4075V63.111H24.926V52.5925Z" fill="#754C24"/>
<path d="M24.926 42.074H14.4075V52.5926H24.926V42.074Z" fill="#754C24"/>
<path d="M24.926 31.5555H14.4075V42.074H24.926V31.5555Z" fill="#68401F"/>
<path d="M24.926 21.037H14.4075V31.5555H24.926V21.037Z" fill="#00C29B"/>
<path d="M24.926 10.5185H14.4075V21.037H24.926V10.5185Z" fill="#00E3B5"/>
<path d="M24.926 -3.05176e-05H14.4075V10.5185H24.926V-3.05176e-05Z" fill="#80EED3"/>
<path d="M14.4074 189.333H3.88892V199.852H14.4074V189.333Z" fill="#754C24"/>
<path d="M14.4074 178.815H3.88892V189.333H14.4074V178.815Z" fill="#754C24"/>
<path d="M14.4074 168.296H3.88892V178.815H14.4074V168.296Z" fill="#754C24"/>
<path d="M14.4074 157.778H3.88892V168.296H14.4074V157.778Z" fill="#754C24"/>
<path d="M14.4074 147.259H3.88892V157.778H14.4074V147.259Z" fill="#754C24"/>
<path d="M14.4074 136.741H3.88892V147.259H14.4074V136.741Z" fill="#754C24"/>
<path d="M14.4074 126.222H3.88892V136.741H14.4074V126.222Z" fill="#754C24"/>
<path d="M14.4074 115.704H3.88892V126.222H14.4074V115.704Z" fill="#754C24"/>
<path d="M14.4074 105.185H3.88892V115.704H14.4074V105.185Z" fill="#8F6436"/>
<path d="M14.4074 94.6666H3.88892V105.185H14.4074V94.6666Z" fill="#8F6436"/>
<path d="M14.4074 84.1481H3.88892V94.6666H14.4074V84.1481Z" fill="#754C24"/>
<path d="M14.4074 73.6296H3.88892V84.1481H14.4074V73.6296Z" fill="#754C24"/>
<path d="M14.4074 63.1111H3.88892V73.6296H14.4074V63.1111Z" fill="#754C24"/>
<path d="M14.4074 52.5925H3.88892V63.111H14.4074V52.5925Z" fill="#8F6436"/>
<path d="M14.4074 42.074H3.88892V52.5926H14.4074V42.074Z" fill="#754C24"/>
<path d="M14.4074 31.5555H3.88892V42.074H14.4074V31.5555Z" fill="#754C24"/>
<path d="M14.4074 21.037H3.88892V31.5555H14.4074V21.037Z" fill="#68401F"/>
<path d="M14.4074 10.5185H3.88892V21.037H14.4074V10.5185Z" fill="#00E3B5"/>
<path d="M14.4074 -3.05176e-05H3.88892V10.5185H14.4074V-3.05176e-05Z" fill="#80EED3"/>
<path d="M3.88888 189.333H-6.62964V199.852H3.88888V189.333Z" fill="#754C24"/>
<path d="M3.88888 178.815H-6.62964V189.333H3.88888V178.815Z" fill="#754C24"/>
<path d="M3.88888 168.296H-6.62964V178.815H3.88888V168.296Z" fill="#754C24"/>
<path d="M3.88888 157.778H-6.62964V168.296H3.88888V157.778Z" fill="#754C24"/>
<path d="M3.88888 147.259H-6.62964V157.778H3.88888V147.259Z" fill="#754C24"/>
<path d="M3.88888 136.741H-6.62964V147.259H3.88888V136.741Z" fill="#754C24"/>
<path d="M3.88888 126.222H-6.62964V136.741H3.88888V126.222Z" fill="#754C24"/>
<path d="M3.88888 115.704H-6.62964V126.222H3.88888V115.704Z" fill="#754C24"/>
<path d="M3.88888 105.185H-6.62964V115.704H3.88888V105.185Z" fill="#754C24"/>
<path d="M3.88888 94.6666H-6.62964V105.185H3.88888V94.6666Z" fill="#754C24"/>
<path d="M3.88888 84.1481H-6.62964V94.6666H3.88888V84.1481Z" fill="#754C24"/>
<path d="M3.88888 73.6296H-6.62964V84.1481H3.88888V73.6296Z" fill="#754C24"/>
<path d="M3.88888 63.1111H-6.62964V73.6296H3.88888V63.1111Z" fill="#754C24"/>
<path d="M3.88888 52.5925H-6.62964V63.111H3.88888V52.5925Z" fill="#8F6436"/>
<path d="M3.88888 42.074H-6.62964V52.5926H3.88888V42.074Z" fill="#754C24"/>
<path d="M3.88888 31.5555H-6.62964V42.074H3.88888V31.5555Z" fill="#754C24"/>
<path d="M3.88888 21.037H-6.62964V31.5555H3.88888V21.037Z" fill="#68401F"/>
<path d="M3.88888 10.5185H-6.62964V21.037H3.88888V10.5185Z" fill="#00E3B5"/>
<path d="M3.88888 -3.05176e-05H-6.62964V10.5185H3.88888V-3.05176e-05Z" fill="#80EED3"/>
<path d="M372.037 189.333H361.519V199.852H372.037V189.333Z" fill="#754C24"/>
<path d="M372.037 178.815H361.519V189.333H372.037V178.815Z" fill="#754C24"/>
<path d="M372.037 168.296H361.519V178.815H372.037V168.296Z" fill="#754C24"/>
<path d="M372.037 157.778H361.519V168.296H372.037V157.778Z" fill="#754C24"/>
<path d="M372.037 147.259H361.519V157.778H372.037V147.259Z" fill="#754C24"/>
<path d="M372.037 136.741H361.519V147.259H372.037V136.741Z" fill="#754C24"/>
<path d="M372.037 126.222H361.519V136.741H372.037V126.222Z" fill="#754C24"/>
<path d="M372.037 115.704H361.519V126.222H372.037V115.704Z" fill="#754C24"/>
<path d="M372.037 105.185H361.519V115.704H372.037V105.185Z" fill="#8F6436"/>
<path d="M372.037 94.6666H361.519V105.185H372.037V94.6666Z" fill="#8F6436"/>
<path d="M372.037 84.1481H361.519V94.6666H372.037V84.1481Z" fill="#754C24"/>
<path d="M372.037 73.6296H361.519V84.1481H372.037V73.6296Z" fill="#754C24"/>
<path d="M372.037 63.1111H361.519V73.6296H372.037V63.1111Z" fill="#754C24"/>
<path d="M372.037 52.5925H361.519V63.111H372.037V52.5925Z" fill="#754C24"/>
<path d="M372.037 42.074H361.519V52.5926H372.037V42.074Z" fill="#754C24"/>
<path d="M372.037 31.5555H361.519V42.074H372.037V31.5555Z" fill="#68401F"/>
<path d="M372.037 21.037H361.519V31.5555H372.037V21.037Z" fill="#00C29B"/>
<path d="M372.037 10.5185H361.519V21.037H372.037V10.5185Z" fill="#00E3B5"/>
<path d="M372.037 -3.05176e-05H361.519V10.5185H372.037V-3.05176e-05Z" fill="#80EED3"/>
<path d="M361.519 189.333H351V199.852H361.519V189.333Z" fill="#754C24"/>
<path d="M361.519 178.815H351V189.333H361.519V178.815Z" fill="#754C24"/>
<path d="M361.519 168.296H351V178.815H361.519V168.296Z" fill="#754C24"/>
<path d="M361.519 157.778H351V168.296H361.519V157.778Z" fill="#754C24"/>
<path d="M361.519 147.259H351V157.778H361.519V147.259Z" fill="#754C24"/>
<path d="M361.519 136.741H351V147.259H361.519V136.741Z" fill="#754C24"/>
<path d="M361.519 126.222H351V136.741H361.519V126.222Z" fill="#754C24"/>
<path d="M361.519 115.704H351V126.222H361.519V115.704Z" fill="#754C24"/>
<path d="M361.519 105.185H351V115.704H361.519V105.185Z" fill="#8F6436"/>
<path d="M361.519 94.6666H351V105.185H361.519V94.6666Z" fill="#754C24"/>
<path d="M361.519 84.1481H351V94.6666H361.519V84.1481Z" fill="#754C24"/>
<path d="M361.519 73.6296H351V84.1481H361.519V73.6296Z" fill="#8F6436"/>
<path d="M361.519 63.1111H351V73.6296H361.519V63.1111Z" fill="#754C24"/>
<path d="M361.519 52.5925H351V63.111H361.519V52.5925Z" fill="#754C24"/>
<path d="M361.519 42.074H351V52.5926H361.519V42.074Z" fill="#754C24"/>
<path d="M361.519 31.5555H351V42.074H361.519V31.5555Z" fill="#68401F"/>
<path d="M361.519 21.037H351V31.5555H361.519V21.037Z" fill="#00C29B"/>
<path d="M361.519 10.5185H351V21.037H361.519V10.5185Z" fill="#00E3B5"/>
<path d="M361.519 -3.05176e-05H351V10.5185H361.519V-3.05176e-05Z" fill="#80EED3"/>
<path d="M351 189.333H340.482V199.852H351V189.333Z" fill="#754C24"/>
<path d="M351 178.815H340.482V189.333H351V178.815Z" fill="#754C24"/>
<path d="M351 168.296H340.482V178.815H351V168.296Z" fill="#754C24"/>
<path d="M351 157.778H340.482V168.296H351V157.778Z" fill="#754C24"/>
<path d="M351 147.259H340.482V157.778H351V147.259Z" fill="#754C24"/>
<path d="M351 136.741H340.482V147.259H351V136.741Z" fill="#754C24"/>
<path d="M351 126.222H340.482V136.741H351V126.222Z" fill="#754C24"/>
<path d="M351 115.704H340.482V126.222H351V115.704Z" fill="#754C24"/>
<path d="M351 105.185H340.482V115.704H351V105.185Z" fill="#754C24"/>
<path d="M351 94.6666H340.482V105.185H351V94.6666Z" fill="#754C24"/>
<path d="M351 84.1481H340.482V94.6666H351V84.1481Z" fill="#8F6436"/>
<path d="M351 73.6296H340.482V84.1481H351V73.6296Z" fill="#F9C62C"/>
<path d="M351 63.1111H340.482V73.6296H351V63.1111Z" fill="#8F6436"/>
<path d="M351 52.5925H340.482V63.111H351V52.5925Z" fill="#754C24"/>
<path d="M351 42.074H340.482V52.5926H351V42.074Z" fill="#68401F"/>
<path d="M351 31.5555H340.482V42.074H351V31.5555Z" fill="#00C29B"/>
<path d="M351 21.037H340.482V31.5555H351V21.037Z" fill="#00E3B5"/>
<path d="M351 10.5185H340.482V21.037H351V10.5185Z" fill="#00E3B5"/>
<path d="M351 -3.05176e-05H340.482V10.5185H351V-3.05176e-05Z" fill="#80EED3"/>
<path d="M340.482 189.333H329.963V199.852H340.482V189.333Z" fill="#754C24"/>
<path d="M340.482 178.815H329.963V189.333H340.482V178.815Z" fill="#754C24"/>
<path d="M340.482 168.296H329.963V178.815H340.482V168.296Z" fill="#754C24"/>
<path d="M340.482 157.778H329.963V168.296H340.482V157.778Z" fill="#754C24"/>
<path d="M340.482 147.259H329.963V157.778H340.482V147.259Z" fill="#754C24"/>
<path d="M340.482 136.741H329.963V147.259H340.482V136.741Z" fill="#754C24"/>
<path d="M340.482 126.222H329.963V136.741H340.482V126.222Z" fill="#754C24"/>
<path d="M340.482 115.704H329.963V126.222H340.482V115.704Z" fill="#754C24"/>
<path d="M340.482 105.185H329.963V115.704H340.482V105.185Z" fill="#754C24"/>
<path d="M340.482 94.6666H329.963V105.185H340.482V94.6666Z" fill="#754C24"/>
<path d="M340.482 84.1481H329.963V94.6666H340.482V84.1481Z" fill="#8F6436"/>
<path d="M340.482 73.6296H329.963V84.1481H340.482V73.6296Z" fill="#F9C62C"/>
<path d="M340.482 63.1111H329.963V73.6296H340.482V63.1111Z" fill="#8F6436"/>
<path d="M340.482 52.5925H329.963V63.111H340.482V52.5925Z" fill="#754C24"/>
<path d="M340.482 42.074H329.963V52.5926H340.482V42.074Z" fill="#68401F"/>
<path d="M340.482 31.5555H329.963V42.074H340.482V31.5555Z" fill="#00C29B"/>
<path d="M340.482 21.037H329.963V31.5555H340.482V21.037Z" fill="#00E3B5"/>
<path d="M340.482 10.5185H329.963V21.037H340.482V10.5185Z" fill="#00E3B5"/>
<path d="M340.482 -3.05176e-05H329.963V10.5185H340.482V-3.05176e-05Z" fill="#80EED3"/>
<path d="M329.963 189.333H319.445V199.852H329.963V189.333Z" fill="#754C24"/>
<path d="M329.963 178.815H319.445V189.333H329.963V178.815Z" fill="#754C24"/>
<path d="M329.963 168.296H319.445V178.815H329.963V168.296Z" fill="#754C24"/>
<path d="M329.963 157.778H319.445V168.296H329.963V157.778Z" fill="#754C24"/>
<path d="M329.963 147.259H319.445V157.778H329.963V147.259Z" fill="#754C24"/>
<path d="M329.963 136.741H319.445V147.259H329.963V136.741Z" fill="#754C24"/>
<path d="M329.963 126.222H319.445V136.741H329.963V126.222Z" fill="#754C24"/>
<path d="M329.963 115.704H319.445V126.222H329.963V115.704Z" fill="#754C24"/>
<path d="M329.963 105.185H319.445V115.704H329.963V105.185Z" fill="#754C24"/>
<path d="M329.963 94.6666H319.445V105.185H329.963V94.6666Z" fill="#754C24"/>
<path d="M329.963 84.1481H319.445V94.6666H329.963V84.1481Z" fill="#754C24"/>
<path d="M329.963 73.6296H319.445V84.1481H329.963V73.6296Z" fill="#8F6436"/>
<path d="M329.963 63.1111H319.445V73.6296H329.963V63.1111Z" fill="#754C24"/>
<path d="M329.963 52.5925H319.445V63.111H329.963V52.5925Z" fill="#754C24"/>
<path d="M329.963 42.074H319.445V52.5926H329.963V42.074Z" fill="#68401F"/>
<path d="M329.963 31.5555H319.445V42.074H329.963V31.5555Z" fill="#00C29B"/>
<path d="M329.963 21.037H319.445V31.5555H329.963V21.037Z" fill="#00E3B5"/>
<path d="M329.963 10.5185H319.445V21.037H329.963V10.5185Z" fill="#00E3B5"/>
<path d="M329.963 -3.05176e-05H319.445V10.5185H329.963V-3.05176e-05Z" fill="#80EED3"/>
<path d="M319.445 189.333H308.926V199.852H319.445V189.333Z" fill="#754C24"/>
<path d="M319.445 178.815H308.926V189.333H319.445V178.815Z" fill="#754C24"/>
<path d="M319.445 168.296H308.926V178.815H319.445V168.296Z" fill="#754C24"/>
<path d="M319.445 157.778H308.926V168.296H319.445V157.778Z" fill="#754C24"/>
<path d="M319.445 147.259H308.926V157.778H319.445V147.259Z" fill="#754C24"/>
<path d="M319.445 136.741H308.926V147.259H319.445V136.741Z" fill="#754C24"/>
<path d="M319.445 126.222H308.926V136.741H319.445V126.222Z" fill="#754C24"/>
<path d="M319.445 115.704H308.926V126.222H319.445V115.704Z" fill="#754C24"/>
<path d="M319.445 105.185H308.926V115.704H319.445V105.185Z" fill="#754C24"/>
<path d="M319.445 94.6666H308.926V105.185H319.445V94.6666Z" fill="#8F6436"/>
<path d="M319.445 84.1481H308.926V94.6666H319.445V84.1481Z" fill="#754C24"/>
<path d="M319.445 73.6296H308.926V84.1481H319.445V73.6296Z" fill="#8F6436"/>
<path d="M319.445 63.1111H308.926V73.6296H319.445V63.1111Z" fill="#754C24"/>
<path d="M319.445 52.5925H308.926V63.111H319.445V52.5925Z" fill="#754C24"/>
<path d="M319.445 42.074H308.926V52.5926H319.445V42.074Z" fill="#754C24"/>
<path d="M319.445 31.5555H308.926V42.074H319.445V31.5555Z" fill="#68401F"/>
<path d="M319.445 21.037H308.926V31.5555H319.445V21.037Z" fill="#00C29B"/>
<path d="M319.445 10.5185H308.926V21.037H319.445V10.5185Z" fill="#00E3B5"/>
<path d="M319.445 -3.05176e-05H308.926V10.5185H319.445V-3.05176e-05Z" fill="#80EED3"/>
<path d="M308.926 189.333H298.407V199.852H308.926V189.333Z" fill="#754C24"/>
<path d="M308.926 178.815H298.407V189.333H308.926V178.815Z" fill="#754C24"/>
<path d="M308.926 168.296H298.407V178.815H308.926V168.296Z" fill="#754C24"/>
<path d="M308.926 157.778H298.407V168.296H308.926V157.778Z" fill="#754C24"/>
<path d="M308.926 147.259H298.407V157.778H308.926V147.259Z" fill="#754C24"/>
<path d="M308.926 136.741H298.407V147.259H308.926V136.741Z" fill="#754C24"/>
<path d="M308.926 126.222H298.407V136.741H308.926V126.222Z" fill="#754C24"/>
<path d="M308.926 115.704H298.407V126.222H308.926V115.704Z" fill="#754C24"/>
<path d="M308.926 105.185H298.407V115.704H308.926V105.185Z" fill="#8F6436"/>
<path d="M308.926 94.6666H298.407V105.185H308.926V94.6666Z" fill="#8F6436"/>
<path d="M308.926 84.1481H298.407V94.6666H308.926V84.1481Z" fill="#754C24"/>
<path d="M308.926 73.6296H298.407V84.1481H308.926V73.6296Z" fill="#754C24"/>
<path d="M308.926 63.1111H298.407V73.6296H308.926V63.1111Z" fill="#754C24"/>
<path d="M308.926 52.5925H298.407V63.111H308.926V52.5925Z" fill="#8F6436"/>
<path d="M308.926 42.074H298.407V52.5926H308.926V42.074Z" fill="#754C24"/>
<path d="M308.926 31.5555H298.407V42.074H308.926V31.5555Z" fill="#754C24"/>
<path d="M308.926 21.037H298.407V31.5555H308.926V21.037Z" fill="#68401F"/>
<path d="M308.926 10.5185H298.407V21.037H308.926V10.5185Z" fill="#00E3B5"/>
<path d="M308.926 -3.05176e-05H298.407V10.5185H308.926V-3.05176e-05Z" fill="#80EED3"/>
<path d="M298.407 189.333H287.889V199.852H298.407V189.333Z" fill="#754C24"/>
<path d="M298.407 178.815H287.889V189.333H298.407V178.815Z" fill="#754C24"/>
<path d="M298.407 168.296H287.889V178.815H298.407V168.296Z" fill="#754C24"/>
<path d="M298.407 157.778H287.889V168.296H298.407V157.778Z" fill="#754C24"/>
<path d="M298.407 147.259H287.889V157.778H298.407V147.259Z" fill="#754C24"/>
<path d="M298.407 136.741H287.889V147.259H298.407V136.741Z" fill="#754C24"/>
<path d="M298.407 126.222H287.889V136.741H298.407V126.222Z" fill="#754C24"/>
<path d="M298.407 115.704H287.889V126.222H298.407V115.704Z" fill="#754C24"/>
<path d="M298.407 105.185H287.889V115.704H298.407V105.185Z" fill="#754C24"/>
<path d="M298.407 94.6666H287.889V105.185H298.407V94.6666Z" fill="#754C24"/>
<path d="M298.407 84.1481H287.889V94.6666H298.407V84.1481Z" fill="#754C24"/>
<path d="M298.407 73.6296H287.889V84.1481H298.407V73.6296Z" fill="#754C24"/>
<path d="M298.407 63.1111H287.889V73.6296H298.407V63.1111Z" fill="#754C24"/>
<path d="M298.407 52.5925H287.889V63.111H298.407V52.5925Z" fill="#8F6436"/>
<path d="M298.407 42.074H287.889V52.5926H298.407V42.074Z" fill="#754C24"/>
<path d="M298.407 31.5555H287.889V42.074H298.407V31.5555Z" fill="#754C24"/>
<path d="M298.407 21.037H287.889V31.5555H298.407V21.037Z" fill="#68401F"/>
<path d="M298.407 10.5185H287.889V21.037H298.407V10.5185Z" fill="#00E3B5"/>
<path d="M298.407 -3.05176e-05H287.889V10.5185H298.407V-3.05176e-05Z" fill="#80EED3"/>
<path d="M287.889 189.333H277.37V199.852H287.889V189.333Z" fill="#754C24"/>
<path d="M287.889 178.815H277.37V189.333H287.889V178.815Z" fill="#754C24"/>
<path d="M287.889 168.296H277.37V178.815H287.889V168.296Z" fill="#754C24"/>
<path d="M287.889 157.778H277.37V168.296H287.889V157.778Z" fill="#754C24"/>
<path d="M287.889 147.259H277.37V157.778H287.889V147.259Z" fill="#754C24"/>
<path d="M287.889 136.741H277.37V147.259H287.889V136.741Z" fill="#754C24"/>
<path d="M287.889 126.222H277.37V136.741H287.889V126.222Z" fill="#754C24"/>
<path d="M287.889 115.704H277.37V126.222H287.889V115.704Z" fill="#754C24"/>
<path d="M287.889 105.185H277.37V115.704H287.889V105.185Z" fill="#754C24"/>
<path d="M287.889 94.6666H277.37V105.185H287.889V94.6666Z" fill="#8F6436"/>
<path d="M287.889 84.1481H277.37V94.6666H287.889V84.1481Z" fill="#8F6436"/>
<path d="M287.889 73.6296H277.37V84.1481H287.889V73.6296Z" fill="#8F6436"/>
<path d="M287.889 63.1111H277.37V73.6296H287.889V63.1111Z" fill="#754C24"/>
<path d="M287.889 52.5925H277.37V63.111H287.889V52.5925Z" fill="#754C24"/>
<path d="M287.889 42.074H277.37V52.5926H287.889V42.074Z" fill="#754C24"/>
<path d="M287.889 31.5555H277.37V42.074H287.889V31.5555Z" fill="#68401F"/>
<path d="M287.889 21.037H277.37V31.5555H287.889V21.037Z" fill="#00C29B"/>
<path d="M287.889 10.5185H277.37V21.037H287.889V10.5185Z" fill="#00E3B5"/>
<path d="M287.889 -3.05176e-05H277.37V10.5185H287.889V-3.05176e-05Z" fill="#80EED3"/>
<path d="M277.37 189.333H266.852V199.852H277.37V189.333Z" fill="#754C24"/>
<path d="M277.37 178.815H266.852V189.333H277.37V178.815Z" fill="#754C24"/>
<path d="M277.37 168.296H266.852V178.815H277.37V168.296Z" fill="#754C24"/>
<path d="M277.37 157.778H266.852V168.296H277.37V157.778Z" fill="#754C24"/>
<path d="M277.37 147.259H266.852V157.778H277.37V147.259Z" fill="#754C24"/>
<path d="M277.37 136.741H266.852V147.259H277.37V136.741Z" fill="#754C24"/>
<path d="M277.37 126.222H266.852V136.741H277.37V126.222Z" fill="#754C24"/>
<path d="M277.37 115.704H266.852V126.222H277.37V115.704Z" fill="#754C24"/>
<path d="M277.37 105.185H266.852V115.704H277.37V105.185Z" fill="#754C24"/>
<path d="M277.37 94.6666H266.852V105.185H277.37V94.6666Z" fill="#8F6436"/>
<path d="M277.37 84.1481H266.852V94.6666H277.37V84.1481Z" fill="#F9C62C"/>
<path d="M277.37 73.6296H266.852V84.1481H277.37V73.6296Z" fill="#F9C62C"/>
<path d="M277.37 63.1111H266.852V73.6296H277.37V63.1111Z" fill="#8F6436"/>
<path d="M277.37 52.5925H266.852V63.111H277.37V52.5925Z" fill="#754C24"/>
<path d="M277.37 42.074H266.852V52.5926H277.37V42.074Z" fill="#68401F"/>
<path d="M277.37 31.5555H266.852V42.074H277.37V31.5555Z" fill="#00C29B"/>
<path d="M277.37 21.037H266.852V31.5555H277.37V21.037Z" fill="#00E3B5"/>
<path d="M277.37 10.5185H266.852V21.037H277.37V10.5185Z" fill="#00E3B5"/>
<path d="M277.37 -3.05176e-05H266.852V10.5185H277.37V-3.05176e-05Z" fill="#80EED3"/>
<path d="M266.852 189.333H256.333V199.852H266.852V189.333Z" fill="#754C24"/>
<path d="M266.852 178.815H256.333V189.333H266.852V178.815Z" fill="#754C24"/>
<path d="M266.852 168.296H256.333V178.815H266.852V168.296Z" fill="#754C24"/>
<path d="M266.852 157.778H256.333V168.296H266.852V157.778Z" fill="#754C24"/>
<path d="M266.852 147.259H256.333V157.778H266.852V147.259Z" fill="#754C24"/>
<path d="M266.852 136.741H256.333V147.259H266.852V136.741Z" fill="#754C24"/>
<path d="M266.852 126.222H256.333V136.741H266.852V126.222Z" fill="#754C24"/>
<path d="M266.852 115.704H256.333V126.222H266.852V115.704Z" fill="#754C24"/>
<path d="M266.852 105.185H256.333V115.704H266.852V105.185Z" fill="#754C24"/>
<path d="M266.852 94.6666H256.333V105.185H266.852V94.6666Z" fill="#754C24"/>
<path d="M266.852 84.1481H256.333V94.6666H266.852V84.1481Z" fill="#8F6436"/>
<path d="M266.852 73.6296H256.333V84.1481H266.852V73.6296Z" fill="#F9C62C"/>
<path d="M266.852 63.1111H256.333V73.6296H266.852V63.1111Z" fill="#8F6436"/>
<path d="M266.852 52.5925H256.333V63.111H266.852V52.5925Z" fill="#754C24"/>
<path d="M266.852 42.074H256.333V52.5926H266.852V42.074Z" fill="#754C24"/>
<path d="M266.852 31.5555H256.333V42.074H266.852V31.5555Z" fill="#68401F"/>
<path d="M266.852 21.037H256.333V31.5555H266.852V21.037Z" fill="#00C29B"/>
<path d="M266.852 10.5185H256.333V21.037H266.852V10.5185Z" fill="#00E3B5"/>
<path d="M266.852 -3.05176e-05H256.333V10.5185H266.852V-3.05176e-05Z" fill="#80EED3"/>
<path d="M256.333 189.333H245.815V199.852H256.333V189.333Z" fill="#754C24"/>
<path d="M256.333 178.815H245.815V189.333H256.333V178.815Z" fill="#754C24"/>
<path d="M256.333 168.296H245.815V178.815H256.333V168.296Z" fill="#754C24"/>
<path d="M256.333 157.778H245.815V168.296H256.333V157.778Z" fill="#754C24"/>
<path d="M256.333 147.259H245.815V157.778H256.333V147.259Z" fill="#754C24"/>
<path d="M256.333 136.741H245.815V147.259H256.333V136.741Z" fill="#754C24"/>
<path d="M256.333 126.222H245.815V136.741H256.333V126.222Z" fill="#754C24"/>
<path d="M256.333 115.704H245.815V126.222H256.333V115.704Z" fill="#754C24"/>
<path d="M256.333 105.185H245.815V115.704H256.333V105.185Z" fill="#754C24"/>
<path d="M256.333 94.6666H245.815V105.185H256.333V94.6666Z" fill="#754C24"/>
<path d="M256.333 84.1481H245.815V94.6666H256.333V84.1481Z" fill="#754C24"/>
<path d="M256.333 73.6296H245.815V84.1481H256.333V73.6296Z" fill="#8F6436"/>
<path d="M256.333 63.1111H245.815V73.6296H256.333V63.1111Z" fill="#754C24"/>
<path d="M256.333 52.5925H245.815V63.111H256.333V52.5925Z" fill="#754C24"/>
<path d="M256.333 42.074H245.815V52.5926H256.333V42.074Z" fill="#754C24"/>
<path d="M256.333 31.5555H245.815V42.074H256.333V31.5555Z" fill="#754C24"/>
<path d="M256.333 21.037H245.815V31.5555H256.333V21.037Z" fill="#68401F"/>
<path d="M256.333 10.5185H245.815V21.037H256.333V10.5185Z" fill="#00E3B5"/>
<path d="M256.333 -3.05176e-05H245.815V10.5185H256.333V-3.05176e-05Z" fill="#80EED3"/>
<path d="M245.815 189.333H235.296V199.852H245.815V189.333Z" fill="#754C24"/>
<path d="M245.815 178.815H235.296V189.333H245.815V178.815Z" fill="#754C24"/>
<path d="M245.815 168.296H235.296V178.815H245.815V168.296Z" fill="#754C24"/>
<path d="M245.815 157.778H235.296V168.296H245.815V157.778Z" fill="#754C24"/>
<path d="M245.815 147.259H235.296V157.778H245.815V147.259Z" fill="#754C24"/>
<path d="M245.815 136.741H235.296V147.259H245.815V136.741Z" fill="#754C24"/>
<path d="M245.815 126.222H235.296V136.741H245.815V126.222Z" fill="#754C24"/>
<path d="M245.815 115.704H235.296V126.222H245.815V115.704Z" fill="#754C24"/>
<path d="M245.815 105.185H235.296V115.704H245.815V105.185Z" fill="#8F6436"/>
<path d="M245.815 94.6666H235.296V105.185H245.815V94.6666Z" fill="#8F6436"/>
<path d="M245.815 84.1481H235.296V94.6666H245.815V84.1481Z" fill="#754C24"/>
<path d="M245.815 73.6296H235.296V84.1481H245.815V73.6296Z" fill="#754C24"/>
<path d="M245.815 63.1111H235.296V73.6296H245.815V63.1111Z" fill="#754C24"/>
<path d="M245.815 52.5925H235.296V63.111H245.815V52.5925Z" fill="#754C24"/>
<path d="M245.815 42.074H235.296V52.5926H245.815V42.074Z" fill="#754C24"/>
<path d="M245.815 31.5555H235.296V42.074H245.815V31.5555Z" fill="#754C24"/>
<path d="M245.815 21.037H235.296V31.5555H245.815V21.037Z" fill="#68401F"/>
<path d="M245.815 10.5185H235.296V21.037H245.815V10.5185Z" fill="#00E3B5"/>
<path d="M245.815 -3.05176e-05H235.296V10.5185H245.815V-3.05176e-05Z" fill="#80EED3"/>
<path d="M235.296 189.333H224.778V199.852H235.296V189.333Z" fill="#754C24"/>
<path d="M235.296 178.815H224.778V189.333H235.296V178.815Z" fill="#754C24"/>
<path d="M235.296 168.296H224.778V178.815H235.296V168.296Z" fill="#754C24"/>
<path d="M235.296 157.778H224.778V168.296H235.296V157.778Z" fill="#754C24"/>
<path d="M235.296 147.259H224.778V157.778H235.296V147.259Z" fill="#754C24"/>
<path d="M235.296 136.741H224.778V147.259H235.296V136.741Z" fill="#754C24"/>
<path d="M235.296 126.222H224.778V136.741H235.296V126.222Z" fill="#754C24"/>
<path d="M235.296 115.704H224.778V126.222H235.296V115.704Z" fill="#754C24"/>
<path d="M235.296 105.185H224.778V115.704H235.296V105.185Z" fill="#754C24"/>
<path d="M235.296 94.6666H224.778V105.185H235.296V94.6666Z" fill="#8F6436"/>
<path d="M235.296 84.1481H224.778V94.6666H235.296V84.1481Z" fill="#754C24"/>
<path d="M235.296 73.6296H224.778V84.1481H235.296V73.6296Z" fill="#754C24"/>
<path d="M235.296 63.1111H224.778V73.6296H235.296V63.1111Z" fill="#754C24"/>
<path d="M235.296 52.5925H224.778V63.111H235.296V52.5925Z" fill="#8F6436"/>
<path d="M235.296 42.074H224.778V52.5926H235.296V42.074Z" fill="#754C24"/>
<path d="M235.296 31.5555H224.778V42.074H235.296V31.5555Z" fill="#68401F"/>
<path d="M235.296 21.037H224.778V31.5555H235.296V21.037Z" fill="#00C29B"/>
<path d="M235.296 10.5185H224.778V21.037H235.296V10.5185Z" fill="#00E3B5"/>
<path d="M235.296 -3.05176e-05H224.778V10.5185H235.296V-3.05176e-05Z" fill="#80EED3"/>
<path d="M224.778 189.333H214.259V199.852H224.778V189.333Z" fill="#754C24"/>
<path d="M224.778 178.815H214.259V189.333H224.778V178.815Z" fill="#754C24"/>
<path d="M224.778 168.296H214.259V178.815H224.778V168.296Z" fill="#754C24"/>
<path d="M224.778 157.778H214.259V168.296H224.778V157.778Z" fill="#754C24"/>
<path d="M224.778 147.259H214.259V157.778H224.778V147.259Z" fill="#754C24"/>
<path d="M224.778 136.741H214.259V147.259H224.778V136.741Z" fill="#754C24"/>
<path d="M224.778 126.222H214.259V136.741H224.778V126.222Z" fill="#754C24"/>
<path d="M224.778 115.704H214.259V126.222H224.778V115.704Z" fill="#754C24"/>
<path d="M224.778 105.185H214.259V115.704H224.778V105.185Z" fill="#754C24"/>
<path d="M224.778 94.6666H214.259V105.185H224.778V94.6666Z" fill="#754C24"/>
<path d="M224.778 84.1481H214.259V94.6666H224.778V84.1481Z" fill="#754C24"/>
<path d="M224.778 73.6296H214.259V84.1481H224.778V73.6296Z" fill="#754C24"/>
<path d="M224.778 63.1111H214.259V73.6296H224.778V63.1111Z" fill="#754C24"/>
<path d="M224.778 52.5925H214.259V63.111H224.778V52.5925Z" fill="#754C24"/>
<path d="M224.778 42.074H214.259V52.5926H224.778V42.074Z" fill="#754C24"/>
<path d="M224.778 31.5555H214.259V42.074H224.778V31.5555Z" fill="#68401F"/>
<path d="M224.778 21.037H214.259V31.5555H224.778V21.037Z" fill="#00C29B"/>
<path d="M224.778 10.5185H214.259V21.037H224.778V10.5185Z" fill="#00E3B5"/>
<path d="M224.778 -3.05176e-05H214.259V10.5185H224.778V-3.05176e-05Z" fill="#80EED3"/>
<path d="M214.259 189.333H203.741V199.852H214.259V189.333Z" fill="#754C24"/>
<path d="M214.259 178.815H203.741V189.333H214.259V178.815Z" fill="#754C24"/>
<path d="M214.259 168.296H203.741V178.815H214.259V168.296Z" fill="#754C24"/>
<path d="M214.259 157.778H203.741V168.296H214.259V157.778Z" fill="#754C24"/>
<path d="M214.259 147.259H203.741V157.778H214.259V147.259Z" fill="#754C24"/>
<path d="M214.259 136.741H203.741V147.259H214.259V136.741Z" fill="#754C24"/>
<path d="M214.259 126.222H203.741V136.741H214.259V126.222Z" fill="#754C24"/>
<path d="M214.259 115.704H203.741V126.222H214.259V115.704Z" fill="#754C24"/>
<path d="M214.259 105.185H203.741V115.704H214.259V105.185Z" fill="#754C24"/>
<path d="M214.259 94.6666H203.741V105.185H214.259V94.6666Z" fill="#754C24"/>
<path d="M214.259 84.1481H203.741V94.6666H214.259V84.1481Z" fill="#8F6436"/>
<path d="M214.259 73.6296H203.741V84.1481H214.259V73.6296Z" fill="#754C24"/>
<path d="M214.259 63.1111H203.741V73.6296H214.259V63.1111Z" fill="#754C24"/>
<path d="M214.259 52.5925H203.741V63.111H214.259V52.5925Z" fill="#754C24"/>
<path d="M214.259 42.074H203.741V52.5926H214.259V42.074Z" fill="#68401F"/>
<path d="M214.259 31.5555H203.741V42.074H214.259V31.5555Z" fill="#00C29B"/>
<path d="M214.259 21.037H203.741V31.5555H214.259V21.037Z" fill="#00E3B5"/>
<path d="M214.259 10.5185H203.741V21.037H214.259V10.5185Z" fill="#00E3B5"/>
<path d="M214.259 -3.05176e-05H203.741V10.5185H214.259V-3.05176e-05Z" fill="#80EED3"/>
<path d="M203.741 189.333H193.222V199.852H203.741V189.333Z" fill="#754C24"/>
<path d="M203.741 178.815H193.222V189.333H203.741V178.815Z" fill="#754C24"/>
<path d="M203.741 168.296H193.222V178.815H203.741V168.296Z" fill="#754C24"/>
<path d="M203.741 157.778H193.222V168.296H203.741V157.778Z" fill="#754C24"/>
<path d="M203.741 147.259H193.222V157.778H203.741V147.259Z" fill="#754C24"/>
<path d="M203.741 136.741H193.222V147.259H203.741V136.741Z" fill="#754C24"/>
<path d="M203.741 126.222H193.222V136.741H203.741V126.222Z" fill="#754C24"/>
<path d="M203.741 115.704H193.222V126.222H203.741V115.704Z" fill="#754C24"/>
<path d="M203.741 105.185H193.222V115.704H203.741V105.185Z" fill="#754C24"/>
<path d="M203.741 94.6666H193.222V105.185H203.741V94.6666Z" fill="#8F6436"/>
<path d="M203.741 84.1481H193.222V94.6666H203.741V84.1481Z" fill="#F9C62C"/>
<path d="M203.741 73.6296H193.222V84.1481H203.741V73.6296Z" fill="#F9C62C"/>
<path d="M203.741 63.1111H193.222V73.6296H203.741V63.1111Z" fill="#754C24"/>
<path d="M203.741 52.5925H193.222V63.111H203.741V52.5925Z" fill="#754C24"/>
<path d="M203.741 42.074H193.222V52.5926H203.741V42.074Z" fill="#68401F"/>
<path d="M203.741 31.5555H193.222V42.074H203.741V31.5555Z" fill="#00C29B"/>
<path d="M203.741 21.037H193.222V31.5555H203.741V21.037Z" fill="#00E3B5"/>
<path d="M203.741 10.5185H193.222V21.037H203.741V10.5185Z" fill="#00E3B5"/>
<path d="M203.741 -3.05176e-05H193.222V10.5185H203.741V-3.05176e-05Z" fill="#80EED3"/>
<path d="M193.222 189.333H182.704V199.852H193.222V189.333Z" fill="#754C24"/>
<path d="M193.222 178.815H182.704V189.333H193.222V178.815Z" fill="#754C24"/>
<path d="M193.222 168.296H182.704V178.815H193.222V168.296Z" fill="#754C24"/>
<path d="M193.222 157.778H182.704V168.296H193.222V157.778Z" fill="#754C24"/>
<path d="M193.222 147.259H182.704V157.778H193.222V147.259Z" fill="#754C24"/>
<path d="M193.222 136.741H182.704V147.259H193.222V136.741Z" fill="#754C24"/>
<path d="M193.222 126.222H182.704V136.741H193.222V126.222Z" fill="#754C24"/>
<path d="M193.222 115.704H182.704V126.222H193.222V115.704Z" fill="#754C24"/>
<path d="M193.222 105.185H182.704V115.704H193.222V105.185Z" fill="#754C24"/>
<path d="M193.222 94.6666H182.704V105.185H193.222V94.6666Z" fill="#754C24"/>
<path d="M193.222 84.1481H182.704V94.6666H193.222V84.1481Z" fill="#F9C62C"/>
<path d="M193.222 73.6296H182.704V84.1481H193.222V73.6296Z" fill="#8F6436"/>
<path d="M193.222 63.1111H182.704V73.6296H193.222V63.1111Z" fill="#8F6436"/>
<path d="M193.222 52.5925H182.704V63.111H193.222V52.5925Z" fill="#754C24"/>
<path d="M193.222 42.074H182.704V52.5926H193.222V42.074Z" fill="#754C24"/>
<path d="M193.222 31.5555H182.704V42.074H193.222V31.5555Z" fill="#68401F"/>
<path d="M193.222 21.037H182.704V31.5555H193.222V21.037Z" fill="#00C29B"/>
<path d="M193.222 10.5185H182.704V21.037H193.222V10.5185Z" fill="#00E3B5"/>
<path d="M193.222 -3.05176e-05H182.704V10.5185H193.222V-3.05176e-05Z" fill="#80EED3"/>
<path d="M182.704 189.333H172.185V199.852H182.704V189.333Z" fill="#754C24"/>
<path d="M182.704 178.815H172.185V189.333H182.704V178.815Z" fill="#754C24"/>
<path d="M182.704 168.296H172.185V178.815H182.704V168.296Z" fill="#754C24"/>
<path d="M182.704 157.778H172.185V168.296H182.704V157.778Z" fill="#754C24"/>
<path d="M182.704 147.259H172.185V157.778H182.704V147.259Z" fill="#754C24"/>
<path d="M182.704 136.741H172.185V147.259H182.704V136.741Z" fill="#754C24"/>
<path d="M182.704 126.222H172.185V136.741H182.704V126.222Z" fill="#754C24"/>
<path d="M182.704 115.704H172.185V126.222H182.704V115.704Z" fill="#754C24"/>
<path d="M182.704 105.185H172.185V115.704H182.704V105.185Z" fill="#754C24"/>
<path d="M182.704 94.6666H172.185V105.185H182.704V94.6666Z" fill="#754C24"/>
<path d="M182.704 84.1481H172.185V94.6666H182.704V84.1481Z" fill="#754C24"/>
<path d="M182.704 73.6296H172.185V84.1481H182.704V73.6296Z" fill="#8F6436"/>
<path d="M182.704 63.1111H172.185V73.6296H182.704V63.1111Z" fill="#754C24"/>
<path d="M182.704 52.5925H172.185V63.111H182.704V52.5925Z" fill="#754C24"/>
<path d="M182.704 42.074H172.185V52.5926H182.704V42.074Z" fill="#754C24"/>
<path d="M182.704 31.5555H172.185V42.074H182.704V31.5555Z" fill="#68401F"/>
<path d="M182.704 21.037H172.185V31.5555H182.704V21.037Z" fill="#00C29B"/>
<path d="M182.704 10.5185H172.185V21.037H182.704V10.5185Z" fill="#00E3B5"/>
<path d="M182.704 -3.05176e-05H172.185V10.5185H182.704V-3.05176e-05Z" fill="#80EED3"/>
<path d="M172.185 189.333H161.667V199.852H172.185V189.333Z" fill="#754C24"/>
<path d="M172.185 178.815H161.667V189.333H172.185V178.815Z" fill="#754C24"/>
<path d="M172.185 168.296H161.667V178.815H172.185V168.296Z" fill="#754C24"/>
<path d="M172.185 157.778H161.667V168.296H172.185V157.778Z" fill="#754C24"/>
<path d="M172.185 147.259H161.667V157.778H172.185V147.259Z" fill="#754C24"/>
<path d="M172.185 136.741H161.667V147.259H172.185V136.741Z" fill="#754C24"/>
<path d="M172.185 126.222H161.667V136.741H172.185V126.222Z" fill="#754C24"/>
<path d="M172.185 115.704H161.667V126.222H172.185V115.704Z" fill="#754C24"/>
<path d="M172.185 105.185H161.667V115.704H172.185V105.185Z" fill="#754C24"/>
<path d="M172.185 94.6666H161.667V105.185H172.185V94.6666Z" fill="#754C24"/>
<path d="M172.185 84.1481H161.667V94.6666H172.185V84.1481Z" fill="#754C24"/>
<path d="M172.185 73.6296H161.667V84.1481H172.185V73.6296Z" fill="#754C24"/>
<path d="M172.185 63.1111H161.667V73.6296H172.185V63.1111Z" fill="#754C24"/>
<path d="M172.185 52.5925H161.667V63.111H172.185V52.5925Z" fill="#754C24"/>
<path d="M172.185 42.074H161.667V52.5926H172.185V42.074Z" fill="#754C24"/>
<path d="M172.185 31.5555H161.667V42.074H172.185V31.5555Z" fill="#754C24"/>
<path d="M172.185 21.037H161.667V31.5555H172.185V21.037Z" fill="#68401F"/>
<path d="M172.185 10.5185H161.667V21.037H172.185V10.5185Z" fill="#00E3B5"/>
<path d="M172.185 -3.05176e-05H161.667V10.5185H172.185V-3.05176e-05Z" fill="#80EED3"/>
<path d="M161.667 189.333H151.148V199.852H161.667V189.333Z" fill="#754C24"/>
<path d="M161.667 178.815H151.148V189.333H161.667V178.815Z" fill="#754C24"/>
<path d="M161.667 168.296H151.148V178.815H161.667V168.296Z" fill="#754C24"/>
<path d="M161.667 157.778H151.148V168.296H161.667V157.778Z" fill="#754C24"/>
<path d="M161.667 147.259H151.148V157.778H161.667V147.259Z" fill="#754C24"/>
<path d="M161.667 136.741H151.148V147.259H161.667V136.741Z" fill="#754C24"/>
<path d="M161.667 126.222H151.148V136.741H161.667V126.222Z" fill="#754C24"/>
<path d="M161.667 115.704H151.148V126.222H161.667V115.704Z" fill="#754C24"/>
<path d="M161.667 105.185H151.148V115.704H161.667V105.185Z" fill="#754C24"/>
<path d="M161.667 94.6666H151.148V105.185H161.667V94.6666Z" fill="#754C24"/>
<path d="M161.667 84.1481H151.148V94.6666H161.667V84.1481Z" fill="#754C24"/>
<path d="M161.667 73.6296H151.148V84.1481H161.667V73.6296Z" fill="#754C24"/>
<path d="M161.667 63.1111H151.148V73.6296H161.667V63.1111Z" fill="#754C24"/>
<path d="M161.667 52.5925H151.148V63.111H161.667V52.5925Z" fill="#8F6436"/>
<path d="M161.667 42.074H151.148V52.5926H161.667V42.074Z" fill="#754C24"/>
<path d="M161.667 31.5555H151.148V42.074H161.667V31.5555Z" fill="#754C24"/>
<path d="M161.667 21.037H151.148V31.5555H161.667V21.037Z" fill="#68401F"/>
<path d="M161.667 10.5185H151.148V21.037H161.667V10.5185Z" fill="#00E3B5"/>
<path d="M161.667 -3.05176e-05H151.148V10.5185H161.667V-3.05176e-05Z" fill="#80EED3"/>
<path d="M151.148 189.333H140.63V199.852H151.148V189.333Z" fill="#754C24"/>
<path d="M151.148 178.815H140.63V189.333H151.148V178.815Z" fill="#754C24"/>
<path d="M151.148 168.296H140.63V178.815H151.148V168.296Z" fill="#754C24"/>
<path d="M151.148 157.778H140.63V168.296H151.148V157.778Z" fill="#754C24"/>
<path d="M151.148 147.259H140.63V157.778H151.148V147.259Z" fill="#754C24"/>
<path d="M151.148 136.741H140.63V147.259H151.148V136.741Z" fill="#754C24"/>
<path d="M151.148 126.222H140.63V136.741H151.148V126.222Z" fill="#754C24"/>
<path d="M151.148 115.704H140.63V126.222H151.148V115.704Z" fill="#754C24"/>
<path d="M151.148 105.185H140.63V115.704H151.148V105.185Z" fill="#754C24"/>
<path d="M151.148 94.6666H140.63V105.185H151.148V94.6666Z" fill="#8F6436"/>
<path d="M151.148 84.1481H140.63V94.6666H151.148V84.1481Z" fill="#8F6436"/>
<path d="M151.148 73.6296H140.63V84.1481H151.148V73.6296Z" fill="#754C24"/>
<path d="M151.148 63.1111H140.63V73.6296H151.148V63.1111Z" fill="#754C24"/>
<path d="M151.148 52.5925H140.63V63.111H151.148V52.5925Z" fill="#F9C62C"/>
<path d="M151.148 42.074H140.63V52.5926H151.148V42.074Z" fill="#8F6436"/>
<path d="M151.148 31.5555H140.63V42.074H151.148V31.5555Z" fill="#754C24"/>
<path d="M151.148 21.037H140.63V31.5555H151.148V21.037Z" fill="#68401F"/>
<path d="M151.148 10.5185H140.63V21.037H151.148V10.5185Z" fill="#00E3B5"/>
<path d="M151.148 -3.05176e-05H140.63V10.5185H151.148V-3.05176e-05Z" fill="#80EED3"/>
<path d="M140.63 189.333H130.111V199.852H140.63V189.333Z" fill="#754C24"/>
<path d="M140.63 178.815H130.111V189.333H140.63V178.815Z" fill="#754C24"/>
<path d="M140.63 168.296H130.111V178.815H140.63V168.296Z" fill="#754C24"/>
<path d="M140.63 157.778H130.111V168.296H140.63V157.778Z" fill="#754C24"/>
<path d="M140.63 147.259H130.111V157.778H140.63V147.259Z" fill="#754C24"/>
<path d="M140.63 136.741H130.111V147.259H140.63V136.741Z" fill="#754C24"/>
<path d="M140.63 126.222H130.111V136.741H140.63V126.222Z" fill="#754C24"/>
<path d="M140.63 115.704H130.111V126.222H140.63V115.704Z" fill="#754C24"/>
<path d="M140.63 105.185H130.111V115.704H140.63V105.185Z" fill="#754C24"/>
<path d="M140.63 94.6666H130.111V105.185H140.63V94.6666Z" fill="#8F6436"/>
<path d="M140.63 84.1481H130.111V94.6666H140.63V84.1481Z" fill="#754C24"/>
<path d="M140.63 73.6296H130.111V84.1481H140.63V73.6296Z" fill="#754C24"/>
<path d="M140.63 63.1111H130.111V73.6296H140.63V63.1111Z" fill="#754C24"/>
<path d="M140.63 52.5925H130.111V63.111H140.63V52.5925Z" fill="#754C24"/>
<path d="M140.63 42.074H130.111V52.5926H140.63V42.074Z" fill="#754C24"/>
<path d="M140.63 31.5555H130.111V42.074H140.63V31.5555Z" fill="#754C24"/>
<path d="M140.63 21.037H130.111V31.5555H140.63V21.037Z" fill="#68401F"/>
<path d="M140.63 10.5185H130.111V21.037H140.63V10.5185Z" fill="#00E3B5"/>
<path d="M140.63 -3.05176e-05H130.111V10.5185H140.63V-3.05176e-05Z" fill="#80EED3"/>
<path d="M130.111 189.333H119.593V199.852H130.111V189.333Z" fill="#754C24"/>
<path d="M130.111 178.815H119.593V189.333H130.111V178.815Z" fill="#754C24"/>
<path d="M130.111 168.296H119.593V178.815H130.111V168.296Z" fill="#754C24"/>
<path d="M130.111 157.778H119.593V168.296H130.111V157.778Z" fill="#754C24"/>
<path d="M130.111 147.259H119.593V157.778H130.111V147.259Z" fill="#754C24"/>
<path d="M130.111 136.741H119.593V147.259H130.111V136.741Z" fill="#754C24"/>
<path d="M130.111 126.222H119.593V136.741H130.111V126.222Z" fill="#754C24"/>
<path d="M130.111 115.704H119.593V126.222H130.111V115.704Z" fill="#754C24"/>
<path d="M130.111 105.185H119.593V115.704H130.111V105.185Z" fill="#754C24"/>
<path d="M130.111 94.6666H119.593V105.185H130.111V94.6666Z" fill="#754C24"/>
<path d="M130.111 84.1481H119.593V94.6666H130.111V84.1481Z" fill="#754C24"/>
<path d="M130.111 73.6296H119.593V84.1481H130.111V73.6296Z" fill="#754C24"/>
<path d="M130.111 63.1111H119.593V73.6296H130.111V63.1111Z" fill="#754C24"/>
<path d="M130.111 52.5925H119.593V63.111H130.111V52.5925Z" fill="#754C24"/>
<path d="M130.111 42.074H119.593V52.5926H130.111V42.074Z" fill="#754C24"/>
<path d="M130.111 31.5555H119.593V42.074H130.111V31.5555Z" fill="#68401F"/>
<path d="M130.111 21.037H119.593V31.5555H130.111V21.037Z" fill="#00C29B"/>
<path d="M130.111 10.5185H119.593V21.037H130.111V10.5185Z" fill="#00E3B5"/>
<path d="M130.111 -3.05176e-05H119.593V10.5185H130.111V-3.05176e-05Z" fill="#80EED3"/>
<path d="M119.593 189.333H109.074V199.852H119.593V189.333Z" fill="#754C24"/>
<path d="M119.593 178.815H109.074V189.333H119.593V178.815Z" fill="#754C24"/>
<path d="M119.593 168.296H109.074V178.815H119.593V168.296Z" fill="#754C24"/>
<path d="M119.593 157.778H109.074V168.296H119.593V157.778Z" fill="#754C24"/>
<path d="M119.593 147.259H109.074V157.778H119.593V147.259Z" fill="#754C24"/>
<path d="M119.593 136.741H109.074V147.259H119.593V136.741Z" fill="#754C24"/>
<path d="M119.593 126.222H109.074V136.741H119.593V126.222Z" fill="#754C24"/>
<path d="M119.593 115.704H109.074V126.222H119.593V115.704Z" fill="#754C24"/>
<path d="M119.593 105.185H109.074V115.704H119.593V105.185Z" fill="#754C24"/>
<path d="M119.593 94.6666H109.074V105.185H119.593V94.6666Z" fill="#754C24"/>
<path d="M119.593 84.1481H109.074V94.6666H119.593V84.1481Z" fill="#754C24"/>
<path d="M119.593 73.6296H109.074V84.1481H119.593V73.6296Z" fill="#8F6436"/>
<path d="M119.593 63.1111H109.074V73.6296H119.593V63.1111Z" fill="#754C24"/>
<path d="M119.593 52.5925H109.074V63.111H119.593V52.5925Z" fill="#754C24"/>
<path d="M119.593 42.074H109.074V52.5926H119.593V42.074Z" fill="#754C24"/>
<path d="M119.593 31.5555H109.074V42.074H119.593V31.5555Z" fill="#68401F"/>
<path d="M119.593 21.037H109.074V31.5555H119.593V21.037Z" fill="#00C29B"/>
<path d="M119.593 10.5185H109.074V21.037H119.593V10.5185Z" fill="#00E3B5"/>
<path d="M119.593 -3.05176e-05H109.074V10.5185H119.593V-3.05176e-05Z" fill="#80EED3"/>
<path d="M109.074 189.333H98.5557V199.852H109.074V189.333Z" fill="#754C24"/>
<path d="M109.074 178.815H98.5557V189.333H109.074V178.815Z" fill="#754C24"/>
<path d="M109.074 168.296H98.5557V178.815H109.074V168.296Z" fill="#754C24"/>
<path d="M109.074 157.778H98.5557V168.296H109.074V157.778Z" fill="#754C24"/>
<path d="M109.074 147.259H98.5557V157.778H109.074V147.259Z" fill="#754C24"/>
<path d="M109.074 136.741H98.5557V147.259H109.074V136.741Z" fill="#754C24"/>
<path d="M109.074 126.222H98.5557V136.741H109.074V126.222Z" fill="#754C24"/>
<path d="M109.074 115.704H98.5557V126.222H109.074V115.704Z" fill="#754C24"/>
<path d="M109.074 105.185H98.5557V115.704H109.074V105.185Z" fill="#754C24"/>
<path d="M109.074 94.6666H98.5557V105.185H109.074V94.6666Z" fill="#754C24"/>
<path d="M109.074 84.1481H98.5557V94.6666H109.074V84.1481Z" fill="#8F6436"/>
<path d="M109.074 73.6296H98.5557V84.1481H109.074V73.6296Z" fill="#F9C62C"/>
<path d="M109.074 63.1111H98.5557V73.6296H109.074V63.1111Z" fill="#754C24"/>
<path d="M109.074 52.5925H98.5557V63.111H109.074V52.5925Z" fill="#754C24"/>
<path d="M109.074 42.074H98.5557V52.5926H109.074V42.074Z" fill="#68401F"/>
<path d="M109.074 31.5555H98.5557V42.074H109.074V31.5555Z" fill="#00C29B"/>
<path d="M109.074 21.037H98.5557V31.5555H109.074V21.037Z" fill="#00E3B5"/>
<path d="M109.074 10.5185H98.5557V21.037H109.074V10.5185Z" fill="#00E3B5"/>
<path d="M109.074 -3.05176e-05H98.5557V10.5185H109.074V-3.05176e-05Z" fill="#80EED3"/>
<path d="M98.5556 189.333H88.0371V199.852H98.5556V189.333Z" fill="#754C24"/>
<path d="M98.5556 178.815H88.0371V189.333H98.5556V178.815Z" fill="#754C24"/>
<path d="M98.5556 168.296H88.0371V178.815H98.5556V168.296Z" fill="#754C24"/>
<path d="M98.5556 157.778H88.0371V168.296H98.5556V157.778Z" fill="#754C24"/>
<path d="M98.5556 147.259H88.0371V157.778H98.5556V147.259Z" fill="#754C24"/>
<path d="M98.5556 136.741H88.0371V147.259H98.5556V136.741Z" fill="#754C24"/>
<path d="M98.5556 126.222H88.0371V136.741H98.5556V126.222Z" fill="#754C24"/>
<path d="M98.5556 115.704H88.0371V126.222H98.5556V115.704Z" fill="#754C24"/>
<path d="M98.5556 105.185H88.0371V115.704H98.5556V105.185Z" fill="#754C24"/>
<path d="M98.5556 94.6666H88.0371V105.185H98.5556V94.6666Z" fill="#754C24"/>
<path d="M98.5556 84.1481H88.0371V94.6666H98.5556V84.1481Z" fill="#754C24"/>
<path d="M98.5556 73.6296H88.0371V84.1481H98.5556V73.6296Z" fill="#8F6436"/>
<path d="M98.5556 63.1111H88.0371V73.6296H98.5556V63.1111Z" fill="#754C24"/>
<path d="M98.5556 52.5925H88.0371V63.111H98.5556V52.5925Z" fill="#754C24"/>
<path d="M98.5556 42.074H88.0371V52.5926H98.5556V42.074Z" fill="#754C24"/>
<path d="M98.5556 31.5555H88.0371V42.074H98.5556V31.5555Z" fill="#68401F"/>
<path d="M98.5556 21.037H88.0371V31.5555H98.5556V21.037Z" fill="#00C29B"/>
<path d="M98.5556 10.5185H88.0371V21.037H98.5556V10.5185Z" fill="#00E3B5"/>
<path d="M98.5556 -3.05176e-05H88.0371V10.5185H98.5556V-3.05176e-05Z" fill="#80EED3"/>
<path d="M88.0371 189.333H77.5186V199.852H88.0371V189.333Z" fill="#754C24"/>
<path d="M88.0371 178.815H77.5186V189.333H88.0371V178.815Z" fill="#754C24"/>
<path d="M88.0371 168.296H77.5186V178.815H88.0371V168.296Z" fill="#754C24"/>
<path d="M88.0371 157.778H77.5186V168.296H88.0371V157.778Z" fill="#754C24"/>
<path d="M88.0371 147.259H77.5186V157.778H88.0371V147.259Z" fill="#754C24"/>
<path d="M88.0371 136.741H77.5186V147.259H88.0371V136.741Z" fill="#754C24"/>
<path d="M88.0371 126.222H77.5186V136.741H88.0371V126.222Z" fill="#754C24"/>
<path d="M88.0371 115.704H77.5186V126.222H88.0371V115.704Z" fill="#754C24"/>
<path d="M88.0371 105.185H77.5186V115.704H88.0371V105.185Z" fill="#754C24"/>
<path d="M88.0371 94.6666H77.5186V105.185H88.0371V94.6666Z" fill="#8F6436"/>
<path d="M88.0371 84.1481H77.5186V94.6666H88.0371V84.1481Z" fill="#754C24"/>
<path d="M88.0371 73.6296H77.5186V84.1481H88.0371V73.6296Z" fill="#754C24"/>
<path d="M88.0371 63.1111H77.5186V73.6296H88.0371V63.1111Z" fill="#754C24"/>
<path d="M88.0371 52.5925H77.5186V63.111H88.0371V52.5925Z" fill="#8F6436"/>
<path d="M88.0371 42.074H77.5186V52.5926H88.0371V42.074Z" fill="#754C24"/>
<path d="M88.0371 31.5555H77.5186V42.074H88.0371V31.5555Z" fill="#754C24"/>
<path d="M88.0371 21.037H77.5186V31.5555H88.0371V21.037Z" fill="#68401F"/>
<path d="M88.0371 10.5185H77.5186V21.037H88.0371V10.5185Z" fill="#00E3B5"/>
<path d="M88.0371 0H77.5186V10.5185H88.0371V0Z" fill="#80EED3"/>
<path d="M393.074 189.333H382.556V199.852H393.074V189.333Z" fill="#754C24"/>
<path d="M393.074 178.815H382.556V189.333H393.074V178.815Z" fill="#754C24"/>
<path d="M393.074 168.296H382.556V178.815H393.074V168.296Z" fill="#754C24"/>
<path d="M393.074 157.778H382.556V168.296H393.074V157.778Z" fill="#754C24"/>
<path d="M393.074 147.259H382.556V157.778H393.074V147.259Z" fill="#754C24"/>
<path d="M393.074 136.741H382.556V147.259H393.074V136.741Z" fill="#754C24"/>
<path d="M393.074 126.222H382.556V136.741H393.074V126.222Z" fill="#754C24"/>
<path d="M393.074 115.704H382.556V126.222H393.074V115.704Z" fill="#754C24"/>
<path d="M393.074 105.185H382.556V115.704H393.074V105.185Z" fill="#754C24"/>
<path d="M393.074 94.6666H382.556V105.185H393.074V94.6666Z" fill="#754C24"/>
<path d="M393.074 84.1481H382.556V94.6666H393.074V84.1481Z" fill="#754C24"/>
<path d="M393.074 73.6296H382.556V84.1481H393.074V73.6296Z" fill="#8F6436"/>
<path d="M393.074 63.1111H382.556V73.6296H393.074V63.1111Z" fill="#754C24"/>
<path d="M393.074 52.5925H382.556V63.111H393.074V52.5925Z" fill="#754C24"/>
<path d="M393.074 42.074H382.556V52.5926H393.074V42.074Z" fill="#754C24"/>
<path d="M393.074 31.5555H382.556V42.074H393.074V31.5555Z" fill="#68401F"/>
<path d="M393.074 21.037H382.556V31.5555H393.074V21.037Z" fill="#00C29B"/>
<path d="M393.074 10.5185H382.556V21.037H393.074V10.5185Z" fill="#00E3B5"/>
<path d="M393.074 -3.05176e-05H382.556V10.5185H393.074V-3.05176e-05Z" fill="#80EED3"/>
<path d="M382.556 189.333H372.037V199.852H382.556V189.333Z" fill="#754C24"/>
<path d="M382.556 178.815H372.037V189.333H382.556V178.815Z" fill="#754C24"/>
<path d="M382.556 168.296H372.037V178.815H382.556V168.296Z" fill="#754C24"/>
<path d="M382.556 157.778H372.037V168.296H382.556V157.778Z" fill="#754C24"/>
<path d="M382.556 147.259H372.037V157.778H382.556V147.259Z" fill="#754C24"/>
<path d="M382.556 136.741H372.037V147.259H382.556V136.741Z" fill="#754C24"/>
<path d="M382.556 126.222H372.037V136.741H382.556V126.222Z" fill="#754C24"/>
<path d="M382.556 115.704H372.037V126.222H382.556V115.704Z" fill="#754C24"/>
<path d="M382.556 105.185H372.037V115.704H382.556V105.185Z" fill="#754C24"/>
<path d="M382.556 94.6666H372.037V105.185H382.556V94.6666Z" fill="#8F6436"/>
<path d="M382.556 84.1481H372.037V94.6666H382.556V84.1481Z" fill="#754C24"/>
<path d="M382.556 73.6296H372.037V84.1481H382.556V73.6296Z" fill="#754C24"/>
<path d="M382.556 63.1111H372.037V73.6296H382.556V63.1111Z" fill="#754C24"/>
<path d="M382.556 52.5925H372.037V63.111H382.556V52.5925Z" fill="#8F6436"/>
<path d="M382.556 42.074H372.037V52.5926H382.556V42.074Z" fill="#754C24"/>
<path d="M382.556 31.5555H372.037V42.074H382.556V31.5555Z" fill="#754C24"/>
<path d="M382.556 21.037H372.037V31.5555H382.556V21.037Z" fill="#68401F"/>
<path d="M382.556 10.5185H372.037V21.037H382.556V10.5185Z" fill="#00E3B5"/>
<path d="M382.556 0H372.037V10.5185H382.556V0Z" fill="#80EED3"/>
</svg>
