<svg width="375" height="161" viewBox="0 0 375 161" fill="none" xmlns="http://www.w3.org/2000/svg">
<path d="M409.16 0H-216V74.7462H409.16V0Z" fill="#A3C254"/>
<path d="M391.277 19.5021V31.0098H379.128V42.5175H351.174V52.0893H324.439V35.7778H312.289V31.0098H287.991V25.238H266.094V39.6137H255.164V60.6931H243.014V39.6137H223.59V20.47H210.223V47.2854H166.464V21.4021H126.361V40.5816H104.5V50.1534H76.5464V37.7136H66.8344V43.4495H38.8806V12.7982H13.3639V28.106H-24.302V38.6816H-78.9909V65.497H-103.289V28.106H-134.898V41.5495H-176.184V60.6931H-216V74.7461H409.16V19.5021H391.277Z" fill="#8BA748"/>
<path d="M409.16 74.7462H-216V161H409.16V74.7462Z" fill="#7F4D2E"/>
<path d="M388.84 119.164H409.16V110.56H396.115V83.7085H362.104V99.0521H324.439V74.7462H311.071V95.2162H294.048V102.888H272.187V95.2162H239.359V106.724H207.786V74.7462H201.693V93.2803H164.027V113.428H117.868V98.0842H87.4771V89.4803H77.765V119.164H43.7546V100.02H26.7315V114.396H-3.65923V98.0842H-31.6129V84.6765H-42.5436V95.2162H-52.2557V110.56H-72.8985V95.2162H-99.6337V114.396H-120.312V89.4803H-159.197V100.02H-191.988V117.264H-216V134.507H-187.15V161H-171.346V125.868H-148.266V143.147H-131.243V131.639H-93.577V146.983H-75.3354V132.607H-40.1066V149.851H-13.3713V137.375H9.70839V141.211H43.7546V131.639H103.282V125.868H177.395V146.983H188.326V135.475H247.888V161H270.968V119.164H295.266V139.311H313.508V124.935H356.012V153.687H385.184V141.211H388.84V119.164Z" fill="#945835"/>
<path d="M349.955 63.2385H330.495V75.7141H349.955V63.2385Z" fill="#7F4D2E"/>
<path d="M156.716 63.2385H137.292V75.7141H156.716V63.2385Z" fill="#7F4D2E"/>
<path d="M54.6852 63.2385H35.2251V75.7141H54.6852V63.2385Z" fill="#7F4D2E"/>
<path d="M9.09904 121.386H-6.99225V133.862H9.09904V121.386Z" fill="#7F4D2E"/>
<path d="M107.331 104.143H91.2401V116.618H107.331V104.143Z" fill="#7F4D2E"/>
<path d="M91.4193 122.498H75.3279V134.973H91.4193V122.498Z" fill="#7F4D2E"/>
<path d="M151.556 108.122H135.464V120.598H151.556V108.122Z" fill="#7F4D2E"/>
<path d="M200.188 111.635H184.097V124.111H200.188V111.635Z" fill="#7F4D2E"/>
<path d="M227.532 117.873H211.441V130.349H227.532V117.873Z" fill="#7F4D2E"/>
<path d="M265.485 101.92H249.394V114.396H265.485V101.92Z" fill="#7F4D2E"/>
<path d="M307.272 106.222H291.181V118.698H307.272V106.222Z" fill="#7F4D2E"/>
<path d="M372.067 101.92H355.976V114.396H372.067V101.92Z" fill="#7F4D2E"/>
<path d="M384.432 124.111H368.34V136.587H384.432V124.111Z" fill="#7F4D2E"/>
<path d="M346.586 117.873H330.495V130.349H346.586V117.873Z" fill="#7F4D2E"/>
<path d="M276.917 138.164H260.826V150.639H276.917V138.164Z" fill="#7F4D2E"/>
<path d="M215.097 68.8669H195.636V81.3425H215.097V68.8669Z" fill="#7F4D2E"/>
<path d="M278.602 68.5084H259.142V80.984H278.602V68.5084Z" fill="#7F4D2E"/>
<path d="M9.13495 68.8669H-10.3251V81.3425H9.13495V68.8669Z" fill="#8BA748"/>
<path d="M85.0759 72.1292H65.6158V84.6048H85.0759V72.1292Z" fill="#8BA748"/>
<path d="M124.569 68.8669H105.109V81.3425H124.569V68.8669Z" fill="#8BA748"/>
<path d="M195.636 72.1292H176.176V84.6048H195.636V72.1292Z" fill="#8BA748"/>
<path d="M249.393 72.1292H229.969V84.6048H249.393V72.1292Z" fill="#8BA748"/>
<path d="M308.921 72.1292H289.496V84.6048H308.921V72.1292Z" fill="#8BA748"/>
<path d="M380.597 64.6725H361.173V77.1481H380.597V64.6725Z" fill="#8BA748"/>
</svg>
