<svg width="57" height="50" viewBox="0 0 57 50" fill="none" xmlns="http://www.w3.org/2000/svg">
<g id="Group">
<rect id="Rectangle" x="7" width="4" height="4" fill="#B80609"/>
<rect id="Rectangle_2" x="11" width="4" height="4" fill="#D62024"/>
<rect id="Rectangle_3" x="14" width="4" height="4" fill="#E95052"/>
<rect id="Rectangle_4" x="18" width="4" height="4" fill="#E66265"/>
<rect id="Rectangle_5" x="21" width="4" height="4" fill="#D6383B"/>
<rect id="Rectangle_6" x="35" width="4" height="4" fill="#DC2C2E"/>
<rect id="Rectangle_7" x="39" width="4" height="4" fill="#DD3738"/>
<rect id="Rectangle_8" x="42" width="4" height="4" fill="#E43B3D"/>
<rect id="Rectangle_9" x="46" width="4" height="4" fill="#C10E13"/>
<rect id="Rectangle_10" x="4" y="4" width="4" height="4" fill="#B6080B"/>
<rect id="Rectangle_11" x="7" y="4" width="4" height="4" fill="#E64E51"/>
<rect id="Rectangle_12" x="11" y="4" width="4" height="4" fill="#F6CACC"/>
<rect id="Rectangle_13" x="14" y="4" width="4" height="4" fill="#EDA0A1"/>
<rect id="Rectangle_14" x="18" y="4" width="4" height="4" fill="#EA696A"/>
<rect id="Rectangle_15" x="21" y="4" width="4" height="4" fill="#E35156"/>
<rect id="Rectangle_16" x="25" y="4" width="4" height="4" fill="#DD3C3F"/>
<rect id="Rectangle_17" x="32" y="4" width="4" height="4" fill="#E74748"/>
<rect id="Rectangle_18" x="35" y="4" width="4" height="4" fill="#DA292C"/>
<rect id="Rectangle_19" x="39" y="4" width="4" height="4" fill="#DD262A"/>
<rect id="Rectangle_20" x="42" y="4" width="4" height="4" fill="#DF393B"/>
<rect id="Rectangle_21" x="46" y="4" width="4" height="4" fill="#E9696C"/>
<rect id="Rectangle_22" x="49" y="4" width="4" height="4" fill="#EB1516"/>
<rect id="Rectangle_23" x="4" y="7" width="4" height="4" fill="#D82B2F"/>
<rect id="Rectangle_24" x="7" y="7" width="4" height="4" fill="#F5C9CB"/>
<rect id="Rectangle_25" x="11" y="7" width="4" height="4" fill="#E6787B"/>
<rect id="Rectangle_26" x="14" y="7" width="4" height="4" fill="#DC1317"/>
<rect id="Rectangle_27" x="18" y="7" width="4" height="4" fill="#D80E13"/>
<rect id="Rectangle_28" x="21" y="7" width="4" height="4" fill="#DE0D0F"/>
<rect id="Rectangle_29" x="25" y="7" width="4" height="4" fill="#DC0D10"/>
<rect id="Rectangle_30" x="28" y="7" width="4" height="4" fill="#DB1618"/>
<rect id="Rectangle_31" x="32" y="7" width="4" height="4" fill="#DC0F11"/>
<rect id="Rectangle_32" x="35" y="7" width="4" height="4" fill="#D20F16"/>
<rect id="Rectangle_33" x="39" y="7" width="4" height="4" fill="#D50E14"/>
<rect id="Rectangle_34" x="42" y="7" width="4" height="4" fill="#DC0C11"/>
<rect id="Rectangle_35" x="46" y="7" width="4" height="4" fill="#E21B1F"/>
<rect id="Rectangle_36" x="49" y="7" width="4" height="4" fill="#EA6469"/>
<rect id="Rectangle_37" x="53" y="7" width="4" height="4" fill="#B4050A"/>
<rect id="Rectangle_38" y="11" width="4" height="4" fill="#900C11"/>
<rect id="Rectangle_39" x="4" y="11" width="4" height="4" fill="#E37A7C"/>
<rect id="Rectangle_40" x="7" y="11" width="4" height="4" fill="#EF9F9F"/>
<rect id="Rectangle_41" x="11" y="11" width="4" height="4" fill="#D91A1D"/>
<rect id="Rectangle_42" x="14" y="11" width="4" height="4" fill="#D70F12"/>
<rect id="Rectangle_43" x="18" y="11" width="4" height="4" fill="#D31015"/>
<rect id="Rectangle_44" x="21" y="11" width="4" height="4" fill="#D50F13"/>
<rect id="Rectangle_45" x="25" y="11" width="4" height="4" fill="#D61012"/>
<rect id="Rectangle_46" x="28" y="11" width="4" height="4" fill="#D51013"/>
<rect id="Rectangle_47" x="32" y="11" width="4" height="4" fill="#D41013"/>
<rect id="Rectangle_48" x="35" y="11" width="4" height="4" fill="#CF1017"/>
<rect id="Rectangle_49" x="39" y="11" width="4" height="4" fill="#D30E15"/>
<rect id="Rectangle_50" x="42" y="11" width="4" height="4" fill="#E10C0D"/>
<rect id="Rectangle_51" x="46" y="11" width="4" height="4" fill="#DD0A11"/>
<rect id="Rectangle_52" x="49" y="11" width="4" height="4" fill="#EE393A"/>
<rect id="Rectangle_53" x="53" y="11" width="4" height="4" fill="#E40D0F"/>
<rect id="Rectangle_54" y="14" width="4" height="4" fill="#AB0D10"/>
<rect id="Rectangle_55" x="4" y="14" width="4" height="4" fill="#E27072"/>
<rect id="Rectangle_56" x="7" y="14" width="4" height="4" fill="#E67979"/>
<rect id="Rectangle_57" x="11" y="14" width="4" height="4" fill="#D51315"/>
<rect id="Rectangle_58" x="14" y="14" width="4" height="4" fill="#CB1218"/>
<rect id="Rectangle_59" x="18" y="14" width="4" height="4" fill="#D31114"/>
<rect id="Rectangle_60" x="21" y="14" width="4" height="4" fill="#D01115"/>
<rect id="Rectangle_61" x="25" y="14" width="4" height="4" fill="#CF1216"/>
<rect id="Rectangle_62" x="28" y="14" width="4" height="4" fill="#CB1218"/>
<rect id="Rectangle_63" x="32" y="14" width="4" height="4" fill="#CB1318"/>
<rect id="Rectangle_64" x="35" y="14" width="4" height="4" fill="#CE1017"/>
<rect id="Rectangle_65" x="39" y="14" width="4" height="4" fill="#DC0E10"/>
<rect id="Rectangle_66" x="42" y="14" width="4" height="4" fill="#DF0B0E"/>
<rect id="Rectangle_67" x="46" y="14" width="4" height="4" fill="#DE0A10"/>
<rect id="Rectangle_68" x="49" y="14" width="4" height="4" fill="#E6181E"/>
<rect id="Rectangle_69" x="53" y="14" width="4" height="4" fill="#D21418"/>
<rect id="Rectangle_70" x="4" y="18" width="4" height="4" fill="#CA2121"/>
<rect id="Rectangle_71" x="7" y="18" width="4" height="4" fill="#DE6768"/>
<rect id="Rectangle_72" x="11" y="18" width="4" height="4" fill="#C8161B"/>
<rect id="Rectangle_73" x="14" y="18" width="4" height="4" fill="#CA1418"/>
<rect id="Rectangle_74" x="18" y="18" width="4" height="4" fill="#C81419"/>
<rect id="Rectangle_75" x="21" y="18" width="4" height="4" fill="#C6141A"/>
<rect id="Rectangle_76" x="25" y="18" width="4" height="4" fill="#C7151A"/>
<rect id="Rectangle_77" x="28" y="18" width="4" height="4" fill="#C91418"/>
<rect id="Rectangle_78" x="32" y="18" width="4" height="4" fill="#CF1315"/>
<rect id="Rectangle_79" x="35" y="18" width="4" height="4" fill="#CF1116"/>
<rect id="Rectangle_80" x="39" y="18" width="4" height="4" fill="#D00E16"/>
<rect id="Rectangle_81" x="42" y="18" width="4" height="4" fill="#DA0D12"/>
<rect id="Rectangle_82" x="46" y="18" width="4" height="4" fill="#DD0A11"/>
<rect id="Rectangle_83" x="49" y="18" width="4" height="4" fill="#E2131B"/>
<rect id="Rectangle_84" x="53" y="18" width="4" height="4" fill="#D3090C"/>
<rect id="Rectangle_85" x="4" y="21" width="4" height="4" fill="#A62629"/>
<rect id="Rectangle_86" x="7" y="21" width="4" height="4" fill="#D55758"/>
<rect id="Rectangle_87" x="11" y="21" width="4" height="4" fill="#C81C20"/>
<rect id="Rectangle_88" x="14" y="21" width="4" height="4" fill="#C4161B"/>
<rect id="Rectangle_89" x="18" y="21" width="4" height="4" fill="#C1161C"/>
<rect id="Rectangle_90" x="21" y="21" width="4" height="4" fill="#C61619"/>
<rect id="Rectangle_91" x="25" y="21" width="4" height="4" fill="#C3171B"/>
<rect id="Rectangle_92" x="28" y="21" width="4" height="4" fill="#C4151A"/>
<rect id="Rectangle_93" x="32" y="21" width="4" height="4" fill="#D01315"/>
<rect id="Rectangle_94" x="35" y="21" width="4" height="4" fill="#D41013"/>
<rect id="Rectangle_95" x="39" y="21" width="4" height="4" fill="#D40F15"/>
<rect id="Rectangle_96" x="42" y="21" width="4" height="4" fill="#DA0D12"/>
<rect id="Rectangle_97" x="46" y="21" width="4" height="4" fill="#DE0B11"/>
<rect id="Rectangle_98" x="49" y="21" width="4" height="4" fill="#EB0A0A"/>
<rect id="Rectangle_99" x="7" y="25" width="4" height="4" fill="#B8393A"/>
<rect id="Rectangle_100" x="11" y="25" width="4" height="4" fill="#BE2B2C"/>
<rect id="Rectangle_101" x="14" y="25" width="4" height="4" fill="#BA1517"/>
<rect id="Rectangle_102" x="18" y="25" width="4" height="4" fill="#C2181B"/>
<rect id="Rectangle_103" x="21" y="25" width="4" height="4" fill="#C0181C"/>
<rect id="Rectangle_104" x="25" y="25" width="4" height="4" fill="#C0181C"/>
<rect id="Rectangle_105" x="28" y="25" width="4" height="4" fill="#CA1518"/>
<rect id="Rectangle_106" x="32" y="25" width="4" height="4" fill="#D11315"/>
<rect id="Rectangle_107" x="35" y="25" width="4" height="4" fill="#D21014"/>
<rect id="Rectangle_108" x="39" y="25" width="4" height="4" fill="#D80E12"/>
<rect id="Rectangle_109" x="42" y="25" width="4" height="4" fill="#DF0C0F"/>
<rect id="Rectangle_110" x="46" y="25" width="4" height="4" fill="#D80B0F"/>
<rect id="Rectangle_111" x="49" y="25" width="4" height="4" fill="#A0070A"/>
<rect id="Rectangle_112" x="11" y="28" width="4" height="4" fill="#AD2E30"/>
<rect id="Rectangle_113" x="14" y="28" width="4" height="4" fill="#BA272C"/>
<rect id="Rectangle_114" x="18" y="28" width="4" height="4" fill="#BE1A1C"/>
<rect id="Rectangle_115" x="21" y="28" width="4" height="4" fill="#BC1A1D"/>
<rect id="Rectangle_116" x="25" y="28" width="4" height="4" fill="#C0181C"/>
<rect id="Rectangle_117" x="28" y="28" width="4" height="4" fill="#C3161B"/>
<rect id="Rectangle_118" x="32" y="28" width="4" height="4" fill="#CC1317"/>
<rect id="Rectangle_119" x="35" y="28" width="4" height="4" fill="#CF1216"/>
<rect id="Rectangle_120" x="39" y="28" width="4" height="4" fill="#D60E12"/>
<rect id="Rectangle_121" x="42" y="28" width="4" height="4" fill="#D30D11"/>
<rect id="Rectangle_122" x="46" y="28" width="4" height="4" fill="#93080C"/>
<rect id="Rectangle_123" x="14" y="32" width="4" height="4" fill="#A72224"/>
<rect id="Rectangle_124" x="18" y="32" width="4" height="4" fill="#B72124"/>
<rect id="Rectangle_125" x="21" y="32" width="4" height="4" fill="#BD1A1D"/>
<rect id="Rectangle_126" x="25" y="32" width="4" height="4" fill="#BD181E"/>
<rect id="Rectangle_127" x="28" y="32" width="4" height="4" fill="#C61519"/>
<rect id="Rectangle_128" x="32" y="32" width="4" height="4" fill="#CA1418"/>
<rect id="Rectangle_129" x="35" y="32" width="4" height="4" fill="#D41113"/>
<rect id="Rectangle_130" x="39" y="32" width="4" height="4" fill="#CF0F13"/>
<rect id="Rectangle_131" x="42" y="32" width="4" height="4" fill="#9B0A0D"/>
<rect id="Rectangle_132" x="18" y="35" width="4" height="4" fill="#AD1F20"/>
<rect id="Rectangle_133" x="21" y="35" width="4" height="4" fill="#BB1C1F"/>
<rect id="Rectangle_134" x="25" y="35" width="4" height="4" fill="#C3181A"/>
<rect id="Rectangle_135" x="28" y="35" width="4" height="4" fill="#C1161C"/>
<rect id="Rectangle_136" x="32" y="35" width="4" height="4" fill="#CF1414"/>
<rect id="Rectangle_137" x="35" y="35" width="4" height="4" fill="#D01114"/>
<rect id="Rectangle_138" x="39" y="35" width="4" height="4" fill="#B20C0D"/>
<rect id="Rectangle_139" x="21" y="39" width="4" height="4" fill="#B01C1E"/>
<rect id="Rectangle_140" x="25" y="39" width="4" height="4" fill="#BA181D"/>
<rect id="Rectangle_141" x="28" y="39" width="4" height="4" fill="#C3171B"/>
<rect id="Rectangle_142" x="32" y="39" width="4" height="4" fill="#C91316"/>
<rect id="Rectangle_143" x="35" y="39" width="4" height="4" fill="#A70E10"/>
<rect id="Rectangle_144" x="25" y="42" width="4" height="4" fill="#B81D1F"/>
<rect id="Rectangle_145" x="28" y="42" width="4" height="4" fill="#C41A1D"/>
<rect id="Rectangle_146" x="32" y="42" width="4" height="4" fill="#9E1013"/>
<rect id="Rectangle_147" x="28" y="46" width="4" height="4" fill="#8C1316"/>
</g>
</svg>
