<svg width="48" height="48" viewBox="0 0 48 48" fill="none" xmlns="http://www.w3.org/2000/svg">
<path d="M44.5725 11.4375H42.2775V15.9975H44.5725V11.4375Z" fill="black"/>
<path d="M42.2775 9.14246H39.9975V11.4375H42.2775V9.14246Z" fill="black"/>
<path d="M39.9975 6.86249H37.7025V9.14249H39.9975V6.86249Z" fill="black"/>
<path d="M28.5675 34.2825H33.1425V32.0025H35.4225V6.86248H37.7025V4.56748H35.4225V2.28748H33.1425V25.1475H28.5675V27.4275H26.2875V32.0025H28.5675V34.2825Z" fill="black"/>
<path d="M21.7125 22.8525H19.4175V27.4275H21.7125V22.8525Z" fill="black"/>
<path d="M19.4175 20.5724H17.1375V22.8524H19.4175V20.5724Z" fill="black"/>
<path d="M17.1375 18.2925H14.8575V20.5725H17.1375V18.2925Z" fill="black"/>
<path d="M5.70749 45.7125H10.2825V43.4325H12.5625V18.2925H14.8575V15.9975H12.5625V13.7175H10.2825V36.5775H5.70749V38.8575H3.42749V43.4325H5.70749V45.7125Z" fill="black"/>
</svg>
