<svg width="272" height="64" viewBox="0 0 272 64" fill="none" xmlns="http://www.w3.org/2000/svg">
<rect x="12.0865" y="0.499481" width="247.985" height="2.41339" fill="#B47C57"/>
<rect x="12.0865" y="60.8338" width="247.985" height="2.41339" fill="#B47C57"/>
<rect x="260.064" y="2.9159" width="4.63524" height="2.41339" fill="#B47C57"/>
<rect width="4.63524" height="2.41339" transform="matrix(-1 0 0 1 12.0865 2.9159)" fill="#B47C57"/>
<rect x="264.704" y="5.32217" width="2.31762" height="2.41339" fill="#B47C57"/>
<rect width="2.31762" height="2.41339" transform="matrix(-1 0 0 1 7.44661 5.32217)" fill="#B47C57"/>
<rect x="267.019" y="7.73858" width="2.31762" height="2.41339" fill="#B47C57"/>
<rect width="2.31762" height="2.41339" transform="matrix(-1 0 0 1 5.13681 7.73858)" fill="#B47C57"/>
<rect x="269.339" y="10.155" width="2.31762" height="43.441" fill="#B47C57"/>
<rect width="2.31762" height="43.441" transform="matrix(-1 0 0 1 2.81683 10.155)" fill="#B47C57"/>
<rect x="267.019" y="53.5896" width="2.31762" height="2.41339" fill="#B47C57"/>
<rect width="2.31762" height="2.41339" transform="matrix(-1 0 0 1 5.13681 53.5896)" fill="#B47C57"/>
<rect x="264.704" y="56.006" width="2.31762" height="2.41339" fill="#B47C57"/>
<rect width="2.31762" height="2.41339" transform="matrix(-1 0 0 1 7.44661 56.006)" fill="#B47C57"/>
<rect x="260.064" y="58.4224" width="4.63524" height="2.41339" fill="#B47C57"/>
<rect width="4.63524" height="2.41339" transform="matrix(-1 0 0 1 12.0865 58.4224)" fill="#B47C57"/>
<rect x="12.0865" y="2.9159" width="247.985" height="57.9213" fill="#FCBD80"/>
<rect x="260.064" y="5.32217" width="4.63524" height="53.0945" fill="#FCBD80"/>
<rect x="264.704" y="7.73858" width="2.31762" height="48.2678" fill="#FCBD80"/>
<rect x="267.019" y="10.155" width="2.31762" height="43.441" fill="#FCBD80"/>
<rect x="2.81683" y="10.155" width="2.31762" height="43.441" fill="#FCBD80"/>
<rect x="5.13681" y="7.73858" width="2.31762" height="48.2678" fill="#FCBD80"/>
<rect x="7.44661" y="5.32217" width="4.63524" height="53.0945" fill="#FCBD80"/>
</svg>
